<svg xmlns="http://www.w3.org/2000/svg" xmlns:xlink="http://www.w3.org/1999/xlink" viewBox="0 0 257.98 257.9"><defs><style>.cls-1{fill:#864634;}.cls-1,.cls-3,.cls-4,.cls-5,.cls-6,.cls-7,.cls-8{fill-rule:evenodd;}.cls-2{fill:url(#GradientFill_1);}.cls-3{fill:#2b7e87;}.cls-4{fill:#56c5d0;}.cls-5{fill:url(#GradientFill_1-2);}.cls-6{fill:url(#GradientFill_1-3);}.cls-7{fill:url(#GradientFill_1-4);}.cls-8{fill:url(#GradientFill_1-5);}</style><linearGradient id="GradientFill_1" x1="24.87" y1="189.04" x2="233.92" y2="68.35" gradientTransform="translate(253.23 -4.52) rotate(87.96)" gradientUnits="userSpaceOnUse"><stop offset="0" stop-color="#ca6c38"/><stop offset="0.17" stop-color="#ffcb05"/><stop offset="0.4" stop-color="#fffcd5"/><stop offset="0.62" stop-color="#fff9ae"/><stop offset="0.83" stop-color="#ffcb05"/><stop offset="1" stop-color="#ca6c38"/></linearGradient><linearGradient id="GradientFill_1-2" x1="105.11" y1="139.73" x2="185.53" y2="93.3" gradientTransform="matrix(1, 0, 0, 1, 0, 0)" xlink:href="#GradientFill_1"/><linearGradient id="GradientFill_1-3" x1="77.04" y1="126.14" x2="118.82" y2="102.03" gradientTransform="matrix(1, 0, 0, 1, 0, 0)" xlink:href="#GradientFill_1"/><linearGradient id="GradientFill_1-4" x1="122.41" y1="182.98" x2="178.64" y2="150.52" gradientTransform="matrix(1, 0, 0, 1, 0, 0)" xlink:href="#GradientFill_1"/><linearGradient id="GradientFill_1-5" x1="65.58" y1="170.53" x2="85.15" y2="159.23" gradientTransform="matrix(1, 0, 0, 1, 0, 0)" xlink:href="#GradientFill_1"/></defs><title>Fichier 3</title><g id="Calque_2" data-name="Calque 2"><g id="Layer_1" data-name="Layer 1"><path class="cls-1" d="M129,0C58,0,0,57.89,0,129s58,129,129,129,129-58,129-128.95S200,0,129,0Z"/><circle class="cls-2" cx="128.95" cy="128.95" r="126.22" transform="translate(-4.51 253.23) rotate(-87.96)"/><path class="cls-3" d="M129,19.51c60.27,0,109.44,49.18,109.44,109.44S189.22,238.32,129,238.32A109.55,109.55,0,0,1,19.58,129C19.58,68.69,68.69,19.51,129,19.51Z"/><path class="cls-4" d="M129,21.24c59.4,0,107.79,48.38,107.79,107.71S188.35,236.66,129,236.66a107.71,107.71,0,0,1,0-215.42Z"/><path class="cls-3" d="M103.32,152.93l.58.07h1.65l.65-.07.72-.07.79-.08.79-.07.8-.14.93-.15.87-.14.93-.14,1-.22,1-.22,1-.21,1.08-.22,1.08-.29,1.15-.21,1.15-.29,1.15-.36,1.15-.29,1.23-.36,1.22-.36,1.23-.36,1.22-.36,1.22-.43,1.3-.36,1.3-.43,1.22-.43,1.3-.51,1.29-.43,1.3-.5,1.51-.58,1.58-.58,1.73-.57,1.73-.65,1.8-.65,1.87-.72,1.87-.72,1.95-.72,1.94-.79,2-.86,1.94-.87,2-.86,1.94-.94,1.94-.93,2-1,1.87-1.08,1.87-1.08,1.73-1.08,1.73-1.15,1.65-1.23,1.59-1.22,1.51-1.3,1.37-1.37L178,123l1.23-1.37,1-1.51.93-1.52.79-1.51.65-1.58.58-1.66.36-1.65.21-1.8v-3l-.07-.79-.07-.72-.07-.72-.07-.79-.15-.72-.14-.72-.22-.72-.14-.72-.22-.72-.29-.65-.21-.72-.29-.65-.29-.65-.36-.72-.29-.64-.36-.58-.36-.65-.43-.57-.36-.65-.43-.58-.43-.57-.51-.51-.43-.57-.5-.51-.51-.5-.57-.43-.51-.51-.57-.43-.65-.5-.65-.44-.65-.5-.64-.36-.72-.43-.65-.36-.65-.36-.72-.36-.72-.36-.65-.29-.72-.29-.72-.21-.72-.29-.65-.15-.72-.21-.72-.15-.72-.14-.72-.14-.72-.08-.72-.07-.79-.07h-2.16l-.72.07-.72.07-.72.08-.79.14-.72.14-.72.22-.72.22-.72.21-.72.29-.65.22-.72.36-.65.28-.64.36-.65.36-.65.44-.65.36-.65.5-.57.43-.65.51-.58.5-.5.5-.58.58-.5.58-.43.57-.51.65-.43.65-.36.65-.36.64-.36.72-.29.72-.28.72-.22.72-.14.8-.15.79-.14.86-.07.79v1.73l.07.94.14.93.15.87.21.86.22.79.29.8.28.79.36.79.36.79.44.72.43.65.43.72.5.65.58.57.5.65.58.58.58.5.64.51.65.5.65.43.65.36.72.43.72.29.72.29.72.29.79.21.72.22.79.14.79.08.8.07.79.07h.79l.79-.07.87-.15.5-.07.5-.07.51-.14.5-.08.43-.14.44-.07.43-.15.36-.14.43-.14.36-.15.36-.14.29-.15.29-.14.36-.14.21-.22.29-.14.29-.22.21-.22.22-.21.22-.22.21-.21.22-.22.21-.29.22-.29.14-.28.22-.29.14-.29.15-.36.14-.36.22-.36.14-.43.15-.36.14-.58.14-.5.08-.51.07-.43.07-.5v-.87l-.07-.36-.07-.43-.08-.36-.07-.36-.14-.29-.07-.36-.22-.28-.14-.29-.15-.29-.21-.29-.22-.21-.22-.29-.28-.22-.22-.21-.29-.22-.29-.14-.28-.22-.29-.14-.29-.15-.29-.14-.36-.15-.29-.07-.36-.14-.28-.07h-.36l-.44-.08-.36-.07h-.79l-.36.07-.29.08-.28.07-.29.07-.22.14-.29.15-.21.14-.22.15-.14.21-.22.15-.14.21-.22.22-.14.36-.22.36-.14.36-.07.43-.15.43-.07.43v1.44l.07.51.15.5.07.43.14.51.22.5.21.43.72,1.3-.93,1.22-.36.36-.51.36-.43.29-.5.22-.58.14-.5.07h-.58l-.5-.07-.51-.14-.5-.15-.43-.21-.43-.29-.44-.36-.43-.29-.43-.43-.36-.43-.36-.43-.29-.51-.29-.5-.28-.51-.29-.57-.22-.58-.21-.57-.22-.65-.14-.65-.15-.65-.07-.72-.07-.65v-1.44l.07-.79.14-1,.22-1,.29-1,.36-.94.36-.93.5-.87.51-.86.57-.79.58-.8.65-.72.72-.72.72-.64.79-.58.79-.58.79-.5.87-.43.86-.36.94-.36.93-.29.94-.29.93-.14.94-.15,1-.07h.93l1,.07,1,.15.94.21,1,.22.94.36.94.43.93.43.94.58.57.43.58.43.58.44.5.5.5.5.51.58.5.58.43.57.44.58.43.65.36.57.36.65.36.72.29.65.28.72.29.72.22.72.29.72.14.72.22.79.14.72.07.79.15.79.07.8v.79l.07.72-.07.79v.79l-.07.79-.15.8-.14.79-.15.79-.14.72-.22.72-.21.72-.29.65-.22.72-.36.65-.28.72-.36.64-.44.65-.43.65-.43.65-.5.57L175,122l-.5.65-.58.57-.57.51-.65.57-.65.51-.72.5-.72.51-.72.43-.79.43-.79.43-.87.43-.86.36-.87.36-.93.29-1,.29-1,.29-1,.29-1.08.21-1.08.15-1.36.21-1.37.07-1.37.08-1.3-.08-1.36-.14-1.3-.14-1.3-.29-1.29-.29-1.3-.36-1.22-.5-1.23-.51L144,127.3l-1.15-.58L141.7,126l-1.08-.72-1.08-.79-1-.87-1-.86-.94-.94-.93-1-.87-1-.79-1.08-.79-1.15-.72-1.16-.72-1.15-.58-1.29-.57-1.23-.51-1.37-.43-1.29-.43-1.37-.29-1.44-.29-1.44-.21-1.66-.15-1.58-.07-1.51.07-1.51.08-1.52.14-1.44.29-1.44.29-1.36.36-1.3.43-1.3.5-1.22.58-1.22.65-1.16.64-1.15.72-1.08.8-1,.86-1,.86-.94.87-.94.93-.86,1-.79,1-.79,1.08-.72,1.08-.65,1.08-.65,1.15-.58,1.15-.57,1.16-.51,1.22-.43,1.15-.43,1.23-.36,1.22-.36,1-.22.93-.21.94-.15,1-.14.93-.14,1-.08.94-.07h2.88l1,.07.93.08.94.07,1,.14.93.15.94.21.93.22.94.21,1,.22.93.29.87.36.93.29.94.36.94.36.93.43.87.43.93.43.87.43.86.51.94.5.86.58.86.5.8.58.86.65.79.64.79.58.8.72.72.65.72.72.72.72.64.79.65.79.65.79.58.8.57.79.58.86.5.87.51.86.5.94.43.93.43.94.44.93.36.94.28,1,.36.93.29,1,.22,1.08.21,1,.22,1.08.14,1,.08,1.08.14,1.08.07,1.08v1.15l-.07,2.66-.29,2.67-.5,2.45-.65,2.44-.79,2.31-1,2.23-1.15,2.16-1.3,2-1.37,1.94-1.58,1.8-1.66,1.8-1.72,1.66-1.88,1.65L180,136.94l-2,1.44-2.08,1.44-2.16,1.3-2.16,1.3-2.31,1.22L167,144.79l-2.3,1.15L162.36,147l-2.3,1-2.38.94-2.3,1-2.38.86-2.3.86-2.24.87-2.23.86-2.16.79-2.16.8-2.09.72-1.15.5-1.22.43-1.23.43-1.22.44-1.22.43-1.16.36-1.22.43-1.22.36-1.16.36-1.22.36-1.15.36-1.23.36-1.15.36-1.15.29-1.15.29-1.15.28-1.16.29-1.08.29-1.08.22-1.15.21-1.08.22-1,.14-1.08.22-1,.14-1,.15-1,.07-1,.07-.93.07-.94.07h-2.81l-1.29-.21-1.23-.36-1.08-.58-.93-.72-.8-.86-.64-.87-.44-1-.21-1-.07-1.08.14-1,.36-1,.65-.86.86-.72,1.08-.51,1.23-.21ZM85.46,140.11l-.86.72-.72.72-.5.79-.44.8-.21.86v.79l.29.87.43.64.57.58.72.36.8.22h.86l.86-.15.87-.21.86-.44.79-.5.29-.22.29-.21.29-.22.29-.21.28-.22.29-.22.29-.21.29-.22.29-.21.28-.22.29-.22.29-.28.29-.22.29-.22.36-.28.28-.22.29-.22.29-.28.29-.22.29-.29.36-.21.28-.29.29-.22.29-.29.29-.21.29-.29.28-.22.29-.28.29-.22.29-.29.29-.21.21-.22.94-.86.93-.87.94-.86.94-.87,1-.93,1-.94,1-.93,1-1,1-1,1-1,.94-1,.94-1.08.93-1.08.94-1.15.86-1.08.87-1.15.79-1.22.72-1.16.72-1.22.57-1.3.58-1.22.5-1.3.44-1.29.28-1.37.29-1.3.15-1.44v-1.36l-.08-1.37-.14-1.44-.29-1.44-.43-1.44-.58-1.44-.21-.58-.29-.57-.29-.58-.29-.58-.28-.5-.36-.5-.29-.51-.36-.5-.36-.43-.43-.51-.36-.43-.44-.43-.43-.43-.36-.36-.5-.44-.43-.36-.44-.36-.5-.36-.43-.28-.51-.36-.5-.29-.5-.29-.51-.22-.5-.28-.58-.22-.5-.22-.58-.21-.5-.22-.58-.14-.57-.15L104.4,90l-.58-.14-.57-.08-.58-.14-.57-.07-.58-.07-.5-.08H99.86l-.57-.07h-.58l-.57.07H97.06l-.58.08-.58.07-.5.07-.58.14-.5.08-.58.14-.5.14-.58.15-.5.14-.5.22-.51.21-.5.22-.51.22-.5.21-.5.29-.51.22-.5.28-.43.29-.51.36-.43.29-.58.43-.57.51-.58.43-.5.5-.51.58-.5.5-.43.58-.51.57-.43.58-.36.65-.36.65-.36.64-.36.65-.29.65-.21.72-.22.72-.21.72-.15.72-.14.79-.07.72v2.38l.14.79.14.79.15.79.21.8.29.79.29.86.36.79.43.8.51.86.43.72.5.65.51.65.5.64.58.58.57.5.58.58.65.5.64.44.65.43.65.36.72.36.72.36.72.29.72.28.72.22.72.14.72.15.79.14.79.07.72.08h.8l.72-.08.79-.07.72-.07.79-.14.72-.22.79-.22.72-.28.72-.29.72-.36.65-.43.58-.29.5-.36.5-.36.44-.36.43-.36.43-.36.43-.43.36-.36.36-.44.36-.36.36-.43.29-.43.29-.43.21-.36.29-.43.22-.44.14-.43.22-.43.14-.5.15-.44.14-.43.07-.43.15-.43v-.43l.07-.44.07-.43v-1.37l-.07-.43-.07-.36v-.5l-.22-.87-.29-.86-.29-.86-.36-.87-.43-.79-.5-.79-.51-.72-.57-.65-.65-.65-.65-.57-.72-.58-.72-.43-.72-.43-.79-.36-.79-.29-.87-.22-.64-.07-.58-.07H99.22l-.65.07-.58.14-.57.15-.51.21-.57.22-.51.22-.5.28-.51.36-.43.29-.43.36-.43.43-.43.44-.36.43-.29.43-.36.5-.29.51-.22.5-.21.51-.22.57-.14.58-.15.57-.07.58-.07.58V108l.07.58.15.64.14.58.29.86.36.72.43.72.43.65.58.58.5.5.65.36.58.36.64.22.72.14H97l.72-.14.65-.29.58-.5.43-.72.58-1.52-1-.86-.22-.14-.14-.15-.15-.21-.14-.15-.14-.21L98,109.8l-.07-.22-.07-.21-.07-.22L97.7,109v-.22l-.07-.21v-.15l.07-.14v-.15l.08-.21.07-.22.07-.14.14-.15.22-.21.22-.15.28-.07.36-.14.36-.07h.94l.29.07.29.07.28.14.22.15.29.21.21.15.22.29.14.28.15.36.14.36.15.51.07.5v.87l-.07.36v.28l-.08.36-.14.29-.07.22-.15.29-.21.21L102,113l-.21.29-.29.21-.36.29-.36.29-.43.29-.51.29-.36.21-.36.22-.43.14-.36.15-.36.14-.43.07-.36.07-.43.08-.36.07H95.11l-.43-.07-.36-.08-.43-.07-.36-.07-.43-.14-.36-.15-.44-.14-.36-.22-.36-.14-.36-.22-.36-.29-.36-.21-.36-.29-.28-.29-.36-.29-.29-.36-.29-.28-.29-.36-.21-.36-.29-.44-.22-.36-.21-.43-.22-.43-.14-.43-.15-.36-.07-.43-.07-.44-.07-.36-.08-.43v-1.22l.08-.36.07-.36.07-.43.07-.36.15-.36.14-.44.14-.36.15-.36.14-.36.22-.36.21-.36.22-.28.22-.36.21-.29.29-.36.22-.29.28-.29.29-.29.29-.28.29-.22.29-.29.28-.21.36-.29.29-.22.36-.14.29-.22.36-.21.36-.15.36-.14L94,97.7l.29-.14.43-.14.36-.08.36-.14.36-.07.36-.07.43-.08.36-.07h.79l.36-.07h.8l.43.07h.43l.36.07h.43l.43.08.44.07.36.14.43.07.43.08.36.14.36.14.36.08.36.14.29.22.36.14.36.14.29.22.36.22L106,99l.29.29.36.21.29.22.29.22.29.28.28.29.22.29.29.29.21.29.29.28.22.29.21.36.22.29.22.36.21.29.22.36.14.36.22.36.14.36.15.36.14.43.14.36.29.86.15.94.07.86v.87l-.07.93-.22.94-.22.94-.28.93-.36.94-.44.93-.43.94-.57.94-.58.93-.65.94-.65.93-.72.94-.72.94-.79.86-.72.94-.86.86-.79.86-.87.87-.79.79-.86.86-.8.72-.79.8-.86.72-.72.72-.79.72-.72.64-.72.65-.65.58-.51.5-.5.43-.5.51-.58.43-.5.5-.58.44-.58.5-.5.43-.58.43-.57.44-.51.43-.5.43-.58.43-.43.36-.5.36-.51.36Zm30,34h-.51l-.57-.08h-1.23l-1.22.22-1.08.5-.87.72-.64.87-.36,1-.15,1.08.07,1,.22,1,.43,1,.65.94.79.79.94.72,1.08.57,1.22.44,1.3.14h3.74l.94-.07,1-.07,1-.15,1-.14,1-.15,1.08-.14,1.08-.14,1.08-.22,1.08-.22,1.08-.21,1.15-.29,1.08-.29,1.15-.29,1.16-.28,1.15-.29,1.22-.36,1.15-.29,1.23-.36,1.15-.36,1.22-.43,1.16-.36,1.22-.43,1.22-.44,1.23-.36,1.15-.43,1.22-.5,1.23-.43,1.22-.44,1.08-.43,1.08-.43,1.08-.43,1.15-.43,1.16-.44,1.15-.43,1.15-.43,1.15-.5,1.23-.44,1.15-.5,1.22-.5,1.23-.44L166,171l1.22-.5,1.23-.51,1.22-.57,1.23-.51,1.22-.57,1.22-.51,1.23-.57,1.22-.58,1.15-.58,1.23-.64,1.22-.58,1.15-.65,1.23-.57,1.15-.65,1.15-.65,1.15-.72,1.08-.65,1.16-.72,1.08-.72.79-.5.65-.58.64-.57.51-.58.5-.58.43-.64.36-.58.22-.65.22-.65.14-.57.14-.65v-1.15l-.07-.58-.14-.57-.15-.51-.21-.5-.22-.51-.29-.5-.43-.43-.43-.43-.58-.29-.64-.29-.65-.07-.72-.07-.72.14-.79.14-.8.29-.79.36-.93.51-.94.57-1,.72-1,.72-1.08.72-1,.72-1.16.72-1.08.65-1.15.65-1.15.65-1.15.64-1.23.58-1.15.58-1.22.57-1.15.58-1.23.57-1.22.51-1.23.57-1.22.51-1.15.5-1.23.51-1.15.43-1.22.5-1.15.43-1.16.44L156,163l-1.15.43-1.08.43-1.08.36-1.51.58-1.59.57-1,.36-.94.36-.94.36-1.29.44-1.3.5-1.29.43-1.23.43-1.29.44-1.3.43-1.22.36-1.23.43-1.22.36-1.23.36-1.22.29-1.15.36-1.15.29-1.16.28-1.15.29-1.08.22-1.08.29-1,.21-1,.22-1,.14-.94.22-.86.14-.87.15-.86.07-.79.07-.79.14h-.72l-.65.08h-1.15ZM75.31,151.7H76l.72.08.65.07.65.07.64.22.58.14.65.22.57.21L81,153l.58.29.57.29.58.36.5.36.51.43.43.43.5.43.43.43.44.51.36.5.36.51.36.5.28.58.36.57.22.58.29.57.14.65.22.65.14.65.15.65.07.64v.65l.07.72-.07.65v.65l-.07.72-.15.65-.14.57-.22.65-.14.65-.29.57-.22.58-.36.58-.28.57-.36.51-.36.5-.36.5-.44.51-.43.43-.5.5-.43.36-.51.44-.5.36-.58.36-.57.28-.51.29-.65.29-.57.22-.65.21-.58.22-.64.14-.65.07-.65.08-.72.07H74.59l-.65-.07L73.3,178l-.65-.07-.65-.14-.65-.22-.57-.21-.65-.22-.58-.29-.57-.29-.51-.28-.57-.36-.51-.36-.5-.44-.51-.36-.43-.5-.43-.43-.43-.51-.36-.5-.36-.5-.36-.51-.36-.57-.29-.58-.22-.58-.28-.57-.22-.65-.14-.65-.15-.57-.14-.65-.07-.72-.08-.65v-1.37l.08-.65.07-.64.14-.65.15-.65.14-.65.22-.65.28-.57.22-.58.29-.57L64,158l.36-.5.36-.51.36-.5.43-.51.43-.43.43-.43.51-.43.5-.43.51-.36.57-.36.51-.29.57-.29.58-.29.65-.21.57-.22.65-.14.65-.22.65-.07.64-.07.65-.08Z"/><path class="cls-5" d="M103.25,154.37c5.33.5,18.93-2.52,32.9-7.71,15.55-5.83,47.52-15.76,49-36.14a25.45,25.45,0,0,0-9.36-22c-7.13-5.47-15.69-7.63-24-4.83C144,86.4,136.3,93.67,138,104.4c1.66,10.08,10.66,17.06,20.16,15.62,6-1,8.86-2.88,10.44-7.7,2.16-6.48-1.94-10.22-6.05-10.94-2.88-.51-4.82.5-5.9,2.23-1.51,2.23-1.37,5.83.29,8.57-2.95,4.1-8.64-1.52-7.85-8.64,1.08-10.23,13.1-16.28,21.82-10.52,5.83,3.82,8.92,12.32,7.2,20.09-1.59,7.06-7.28,13.54-18.65,15.34-13.83,2.16-27-8.07-29.38-22.83-2.66-16.84,8.57-27.28,21.17-30.45,9.79-2.45,19.94-.22,28.87,5.69a31.92,31.92,0,0,1,14.4,26.78c.22,28.37-33.41,38.66-55.08,46.8-12.89,4.82-25.92,8.5-34.77,8.06C98.35,162.22,97,153.72,103.25,154.37Z"/><path class="cls-6" d="M86.33,141.26a98.81,98.81,0,0,0,8.49-7c6.77-6.27,21.1-18.07,17.57-28.8A14.24,14.24,0,0,0,103,96.05c-4.75-1.3-9.65-.65-13.25,2.59-3.45,3-5.9,8.35-2.81,13.54,3,4.82,9.08,6.55,13.61,3.74,2.88-1.73,4-3.31,3.75-6.12-.22-3.82-3.17-4.82-5.4-4.32a2.89,2.89,0,0,0-2.52,2.38,4.5,4.5,0,0,0,1.94,4.32c-.72,2.73-4.75,1-5.83-2.74-1.59-5.47,3.24-11.16,8.93-10,3.81.72,7.2,4.39,7.92,8.79.64,4-.87,8.42-6.34,11.73-6.62,4-15.55,1.59-19.8-5.54-4.9-8.07-1.37-15.77,4.39-20a20.07,20.07,0,0,1,16-3.17,17.7,17.7,0,0,1,13,10.73c6.05,14.47-9,26.86-18.43,35.57A117.47,117.47,0,0,1,89,145C85.18,147.82,81.79,144.58,86.33,141.26Z"/><path class="cls-7" d="M114.26,175.46c5.33.51,18.94-2.44,32.91-7.7,9.57-3.6,25.2-8.64,36.29-16.78,5.25-3.88,7.2-2.52,7.92-.36s.28,5.19-3.68,7.78c-11.3,7.49-26,12.74-37.29,17.14-12.82,5-25.92,8.49-34.78,8.06C109.37,183.31,108,174.89,114.26,175.46Z"/><path class="cls-8" d="M75.31,153.07A11.85,11.85,0,1,1,63.5,165,11.88,11.88,0,0,1,75.31,153.07Z"/></g></g></svg>