<svg xmlns="http://www.w3.org/2000/svg" xmlns:xlink="http://www.w3.org/1999/xlink" viewBox="0 0 257.98 257.98"><defs><style>.cls-1{fill:#864634;}.cls-1,.cls-2,.cls-3,.cls-4,.cls-5,.cls-6,.cls-7,.cls-8{fill-rule:evenodd;}.cls-2{fill:url(#GradientFill_1);}.cls-3{fill:#195682;}.cls-4{fill:#0095da;}.cls-5{fill:url(#GradientFill_1-2);}.cls-6{fill:url(#GradientFill_1-3);}.cls-7{fill:url(#GradientFill_1-4);}.cls-8{fill:url(#GradientFill_1-5);}</style><linearGradient id="GradientFill_1" x1="24.6" y1="189.24" x2="233.65" y2="68.55" gradientUnits="userSpaceOnUse"><stop offset="0" stop-color="#ca6c38"/><stop offset="0.17" stop-color="#ffcb05"/><stop offset="0.4" stop-color="#fffcd5"/><stop offset="0.62" stop-color="#fff9ae"/><stop offset="0.83" stop-color="#ffcb05"/><stop offset="1" stop-color="#ca6c38"/></linearGradient><linearGradient id="GradientFill_1-2" x1="82.25" y1="198.16" x2="171.18" y2="146.82" xlink:href="#GradientFill_1"/><linearGradient id="GradientFill_1-3" x1="101.23" y1="182.59" x2="155.99" y2="150.97" xlink:href="#GradientFill_1"/><linearGradient id="GradientFill_1-4" x1="110.08" y1="135.53" x2="152.16" y2="111.24" xlink:href="#GradientFill_1"/><linearGradient id="GradientFill_1-5" x1="119.63" y1="64.29" x2="138.7" y2="53.28" xlink:href="#GradientFill_1"/></defs><title>Fichier 4</title><g id="Calque_2" data-name="Calque 2"><g id="Layer_1" data-name="Layer 1"><path class="cls-1" d="M129,0C58,0,0,58,0,129S58,258,129,258s129-58,129-129S200,0,129,0Z"/><path class="cls-2" d="M129,2.74C198.5,2.74,255.17,59.47,255.17,129S198.5,255.24,129,255.24,2.74,198.5,2.74,129,59.47,2.74,129,2.74Z"/><path class="cls-3" d="M129,19.58c60.27,0,109.44,49.11,109.44,109.37A109.62,109.62,0,0,1,129,238.39c-60.26,0-109.37-49.1-109.37-109.44A109.55,109.55,0,0,1,129,19.58Z"/><path class="cls-4" d="M129,21.24c59.4,0,107.79,48.38,107.79,107.71A108,108,0,0,1,129,236.74C69.62,236.74,21.24,188.35,21.24,129A107.91,107.91,0,0,1,129,21.24Z"/><path class="cls-3" d="M184.32,147.38l.72.65.65.58.57.65.65.64.58.65.57.65.58.65.58.72.5.65.5.72.51.64.43.72.43.72.43.72.44.72.36.72.36.72.36.8.28.72.29.79.29.72.29.79.21.79.22.72.14.79.22.8.14.79.08.79.07.79.07.87.07.79v.79l-.07,2.16-.29,2.16-.43,2.09-.65,2.09-.72,2-.93,2-1.08,1.94L190.51,187l-1.37,1.88-1.51,1.72L186,192.31,184.25,194l-1.87,1.58-2,1.59-2.16,1.44L176,200.09l-2.31,1.37-2.44,1.29-2.52,1.15-2.6,1.16-2.73,1.08-2.74,1-2.88.87-2.95.79-3,.79-3.1.58-3.17.57-3.17.44-3.24.36-3.38.28-3.31.15L129,212l-3.38-.07-3.39-.15-3.31-.28-3.24-.36-3.24-.44-3.09-.57-3.1-.58-3-.79-3-.79-2.88-.87-2.8-1-2.67-1.08-2.59-1.16-2.59-1.15-2.38-1.29-2.37-1.37-2.16-1.44-2.16-1.44-2-1.59L73.73,194,72,192.31l-1.66-1.73-1.51-1.72L67.46,187l-1.22-1.87-1.08-1.94-.94-2-.72-2-.64-2.09L62.42,175l-.28-2.16-.08-2.16v-.79l.08-.87.07-.79.07-.79.07-.79.15-.79.14-.8.22-.79.21-.72.22-.79.29-.79.21-.72.36-.79.29-.72.36-.8.36-.72.36-.72.43-.72.43-.72.44-.72.43-.72.5-.64.51-.72.5-.65.58-.72.57-.65.58-.65.57-.65.58-.64.65-.65.65-.58.72-.65.57-.5.58-.43.5-.36.58-.36.5-.22.58-.21.5-.08.51-.07.57.07.51.08.43.14.43.22.36.28.36.29.29.29.21.36.22.36.22.29.21.43.15.36.14.43.07.36.15.43V150l.07.5v.94l-.07.43-.08.5-.14.51-.14.5-.15.5-.14.29-.15.36-.14.29-.22.29-.14.21-.22.29-.21.29-.22.22-.21.21-.22.29-.14.22-.22.21-.22.15-.14.21-.14.15-.15.14-.36.43-.29.36-.28.36-.36.36-.29.43L77,160l-.22.44-.28.36-.22.36-.29.43-.21.36-.22.43-.22.36-.21.43-.15.43-.21.36-.15.44-.14.43-.14.36-.15.43-.14.43-.15.36-.07.43-.14.44-.07.43-.08.43-.07.36v.43l-.07.43v2.81l.22,1.44L74,175l.43,1.44.65,1.44.72,1.37.79,1.37,1,1.37,1.08,1.29,1.22,1.3,1.3,1.29,1.44,1.23,1.51,1.15,1.65,1.15,1.73,1.15,1.87,1.08,1.88,1,2.08.94,2.09.93,2.16.87,2.31.79,2.3.72,2.45.72,2.45.58,2.59.57,2.59.51,2.66.43,2.67.36,2.81.21,2.8.22,2.81.14h5.83l2.81-.14,2.81-.22,2.74-.21,2.73-.36,2.67-.43,2.59-.51,2.59-.57,2.45-.58,2.45-.72,2.3-.72,2.3-.79,2.16-.87,2.09-.93,2-.94,1.94-1,1.87-1.08,1.73-1.15,1.66-1.15,1.51-1.15,1.44-1.23,1.3-1.29,1.22-1.3,1.08-1.29,1-1.37.79-1.37.72-1.37.58-1.44L184,175l.36-1.44.14-1.44.08-1.51v-1.3l-.08-.43-.07-.43v-.36l-.07-.43-.14-.43-.08-.44-.07-.43-.14-.36-.15-.43-.14-.43-.14-.36-.15-.43-.14-.44-.22-.36-.14-.43-.22-.43-.21-.36-.22-.43-.22-.36-.28-.43-.22-.36-.29-.36-.29-.44-.21-.36-.36-.43-.29-.36-.29-.36-.36-.36-.29-.43-.21-.22-.29-.28-.22-.29-.28-.29-.29-.29-.29-.36-.29-.29-.29-.36-.28-.36-.22-.36-.22-.43-.28-.43-.15-.43-.21-.43-.15-.51-.07-.5-.07-.87v-.86l.07-.79.22-.79.21-.72.36-.72.51-.65.57-.58.79-.43.8-.29.86-.07.94.14.93.29.94.43.93.65.94.79Zm-28,2.45-.93-.36-.94-.21h-.86l-.87.14-.79.36-.58.65-.36.72-.07.79v.72l.22.72.29.72.43.65.5.65.65.57.72.51.72.43.58.21.5.29.5.29.51.29.5.29.43.28.51.29.43.29.36.29.43.29.36.28.36.29.36.29.36.36.29.29.29.29.29.36.21.28.29.29.22.36.21.29.15.36.14.29.14.29.15.36.14.28.07.36.08.29.07.29.07.36v1.3l-.14.64-.22.65-.22.65-.36.65-.43.65-.5.64-.58.65-.65.65-.72.65-.79.65-.86.57L157,175l-1.08.58-1.08.5-1.08.58-1.22.5-1.3.5-1.29.44-1.37.43-1.44.43-1.44.36-1.51.36-1.59.29-1.58.29-1.59.21-1.65.22-1.73.21-1.73.15-1.8.07-1.73.07h-3.67l-1.73-.07-1.8-.07-1.72-.15-1.73-.21-1.66-.22-1.58-.21-1.66-.29-1.51-.29-1.51-.36-1.44-.36-1.44-.43-1.37-.43-1.3-.44-1.29-.5-1.23-.5L103,176l-1.08-.5-1-.58-.93-.65-.87-.57-.79-.65-.72-.65-.65-.65-.57-.65-.51-.64-.43-.65-.36-.65-.29-.65-.14-.65-.14-.64V166l.07-.36.07-.29.07-.29.07-.36.15-.28L95,164l.14-.29.22-.29.14-.36.22-.29.22-.36.28-.29.22-.28.29-.36.29-.29.28-.29.36-.36.36-.29.36-.29.36-.28.44-.29.36-.29.43-.29.43-.29.5-.28.51-.29.43-.29.5-.29.58-.29.58-.21.72-.43L105,156l.64-.57.51-.65.36-.65.36-.72.14-.72.07-.72-.07-.79-.36-.72-.57-.65-.8-.36-.86-.14h-.86l-.94.21-.94.36-.86.36-.86.36-.8.43-.79.36-.72.44-.79.43-.72.43-.72.43-.65.43-.65.44-.64.5-.65.5-.58.51-.57.5-.51.51-.5.5-.51.5-.5.58-.43.58-.36.5-.43.58-.36.57-.29.65-.29.58-.29.57-.21.65-.22.65-.14.57-.15.65-.07.65-.07.65v.72l.07,1.15.14,1.15.29,1.15.43,1.16.51,1.08.65,1.08.72,1,.79,1,.86,1,1,.94,1,.86,1.15.86,1.22.87,1.3.79,1.3.79,1.44.72,1.51.72,1.51.65,1.58.58,1.66.57,1.73.58,1.8.5,1.8.43,1.87.44,1.87.36,2,.36,2,.28,2,.22,2.09.22,2.08.07,2.16.07,2.09.07,2.16-.07,2.16-.07,2.09-.07,2.09-.22,2-.22,1.95-.28,2-.36,1.88-.36,1.87-.44,1.8-.43,1.8-.5,1.73-.58,1.65-.57,1.59-.58,1.51-.65,1.51-.72,1.44-.72,1.3-.79,1.29-.79,1.23-.87,1.15-.86,1-.86,1-.94.87-1,.79-1,.72-1,.65-1.08.5-1.08.36-1.16.36-1.15.15-1.15.07-1.15v-.72l-.07-.65-.08-.65-.14-.65-.14-.57-.22-.65-.22-.65-.28-.57-.29-.58-.29-.65-.36-.57-.43-.58-.36-.5-.43-.58-.51-.58-.5-.5-.51-.5-.5-.51-.58-.5-.57-.51-.65-.5-.65-.5-.65-.44-.64-.43-.72-.43-.72-.43-.8-.43-.72-.44-.79-.36-.79-.43-.86-.36-.87-.36Zm-28.8-61.34-.43,1-.5,1.08-.51,1.15-.5,1.22-.58,1.3-.57,1.44-.65,1.44-.65,1.51-.65,1.58-.72,1.66-.65,1.66-.72,1.72-.72,1.73-.72,1.8-.64,1.73-.72,1.8-.65,1.8-.65,1.8-.65,1.8-.65,1.8-.57,1.73-.58,1.73-.5,1.72-.51,1.66-.43,1.66L112,129.6l-.36,1.51-.29,1.51-.21,1.44-.15,1.3-.14,1.3V139l.07,1.08.07,1.15.22,1.08.14,1,.29,1.08.29,1,.29,1,.36,1,.36.93.43.94.5.93.51.87.5.86.58.79.57.8.65.72.65.72.72.64.72.65.72.58.72.57.79.51.86.43.8.43.86.36.86.29.94.29.86.21.94.15.94.07H130l.94-.07.93-.15.87-.21.93-.29.87-.29.86-.36.79-.43L137,158l.79-.51.72-.57.72-.58.72-.65.72-.64.65-.72.64-.72.58-.8.58-.79.5-.86.5-.87.51-.93.43-.94.36-.93.36-1,.29-1,.29-1,.28-1.08.15-1,.21-1.08.08-1.15.07-1.08v-2.37l-.15-1.44-.14-1.59-.29-1.8L146.3,130l-.36-1.94-.36-2.09-.5-2.23-.5-2.24-.51-2.3-.57-2.38-.65-2.37-.58-2.38-.72-2.37-.65-2.31-.72-2.3-.72-2.23-.72-2.16-.72-2-.72-1.94-.72-1.88-.72-1.65-.72-1.59-.72-1.36-.72-1.16-.72-1-.72-.87-.93-.65-1.15-.28-1.23.36-.86.86-.58,1Zm-1.58,56.66.36.29.29.22.36.21.36.22.36.21.36.15.36.14.43.07.36.15.36.07h.29l-.22-.22-.29-.28L129,146l-.29-.36-.28-.36-.22-.44-.29-.36-.21-.43-.29-.36-.22-.43-.21-.43-.15-.51-.21-.43-.15-.43-.14-.5-.15-.51L126,140l-.07-.5-.07-.51-.08-.5-.07-.51-.07-.57V135.5l-.07-.5v-1.3l-.07-.72V131.4l-.08-.86v-.94l-.07-.94v-1.94l-.07-1v-3.24l-.07-1.08v-1.15l.07-1.08v-.58h0l-.29,1.08-.29,1.08-.21,1.08-.29,1.08-.22,1.16-.21,1.08-.22,1-.21,1.08-.15,1-.21,1-.15,1-.14.93-.15.87-.07.86-.07.79-.07.8-.07.72-.08.64v1.08l.08.51.07.5.07.58.07.5.15.51.14.43.14.5.15.51.21.43.22.43.22.43.21.43.22.36.29.44.28.36.29.36.29.28.36.36.29.29Zm3-99.21h.72l.65.07.65.07.65.14.57.15.65.14.58.22.57.21.58.29.57.29.58.29.5.36.51.36.5.36.43.43.44.43.43.43.43.51.36.43.36.5.36.58.29.5.29.58.28.58.22.57.22.65.14.58.14.64.15.65.07.65.07.65v1.29l-.07.65-.07.65-.15.65-.14.65-.14.57-.22.65-.22.58-.28.57-.29.51-.29.57-.36.51-.36.5-.36.5-.43.51-.43.43-.44.43-.43.36-.5.43-.51.36-.5.29-.58.36-.57.29-.58.22-.57.28-.58.15-.65.21-.57.15-.65.07-.65.14h-2.66l-.65-.14-.65-.07-.58-.15-.64-.21-.58-.15-.58-.28-.57-.22-.58-.29-.57-.36-.51-.29-.5-.36-.51-.43-.43-.36-.43-.43-.43-.43L119,67.1l-.36-.5-.36-.5-.36-.51-.29-.57-.29-.51-.29-.57-.21-.58-.22-.65-.14-.57-.22-.65-.07-.65-.07-.65-.08-.65V58.25l.08-.65.07-.65.07-.65.22-.64.14-.58.22-.65.21-.57.29-.58.29-.58.29-.5.36-.58.36-.5.36-.43.43-.51.43-.43.43-.43.43-.43.51-.36.5-.36.51-.36.57-.29.58-.29.57-.29.58-.21.58-.22.64-.14.58-.15.65-.14.65-.07.64-.07Z"/><path class="cls-5" d="M183.38,148.46c7,6.34,11.09,14,11.09,22.18,0,22-29.37,40-65.52,40s-65.45-17.93-65.45-40c0-8.21,4.11-15.84,11.09-22.18,2.88-2.66,4.47-2.08,5.4-.72a5.74,5.74,0,0,1,.51,5.62,12.52,12.52,0,0,1-2.67,3.38c-3.74,4.18-5.83,8.93-5.83,13.9C72,188,97.56,202.1,129,202.1s57-14.11,57-31.46c0-5-2.09-9.72-5.84-13.9-1.29-1.44-3.16-3-3.38-5.11C176.18,147.82,178.63,144.14,183.38,148.46Z"/><path class="cls-6" d="M155.81,151.13c8.78,3.74,14.4,9.29,14.4,15.41,0,11.23-18.51,20.37-41.26,20.37s-41.18-9.14-41.18-20.37c0-6.12,5.61-11.67,14.4-15.41,4.75-2,4.32,2.73.72,4.46-6,2.88-9.79,6.77-9.79,10.95,0,8.85,16.12,16.05,35.85,16.05s35.93-7.2,35.93-16.05c0-4.18-3.74-8.07-9.79-10.95C151.49,153.86,151.06,149.11,155.81,151.13Z"/><path class="cls-7" d="M128.81,89.06c4.17-9.79,17,37.3,17,48.82s-7.56,21-16.85,21-16.77-9.43-16.77-21,12.45-39,16.63-48.82Zm4.68,58.61c-3.75-1.65-6.48-6-6.48-11.23,0-4.25-1.08-20.16.57-29.88-2.88,6.48-6.76,23.54-6.76,29.88s4.24,11.88,9.5,11.88A7.85,7.85,0,0,0,133.49,147.67Z"/><path class="cls-8" d="M129,47.38A11.52,11.52,0,1,1,117.5,58.9,11.5,11.5,0,0,1,129,47.38Z"/></g></g></svg>