<svg xmlns="http://www.w3.org/2000/svg" xmlns:xlink="http://www.w3.org/1999/xlink" viewBox="0 0 257.9 257.98"><defs><style>.cls-1{fill:#864634;}.cls-1,.cls-2,.cls-3,.cls-4,.cls-5,.cls-6,.cls-7,.cls-9{fill-rule:evenodd;}.cls-2{fill:url(#GradientFill_1);}.cls-3{fill:#a62c38;}.cls-4{fill:#ed1651;}.cls-5{fill:#a82c34;}.cls-6{fill:url(#GradientFill_1-2);}.cls-7{fill:url(#GradientFill_1-3);}.cls-8{fill:url(#GradientFill_1-4);}.cls-9{fill:url(#GradientFill_1-5);}</style><linearGradient id="GradientFill_1" x1="24.07" y1="189.53" x2="233.12" y2="68.84" gradientUnits="userSpaceOnUse"><stop offset="0" stop-color="#ca6c38"/><stop offset="0.17" stop-color="#ffcb05"/><stop offset="0.4" stop-color="#fffcd5"/><stop offset="0.62" stop-color="#fff9ae"/><stop offset="0.83" stop-color="#ffcb05"/><stop offset="1" stop-color="#ca6c38"/></linearGradient><linearGradient id="GradientFill_1-2" x1="96.39" y1="207.88" x2="156.35" y2="173.27" xlink:href="#GradientFill_1"/><linearGradient id="GradientFill_1-3" x1="76.15" y1="146.13" x2="186.3" y2="82.54" xlink:href="#GradientFill_1"/><linearGradient id="GradientFill_1-4" x1="119.29" y1="171.9" x2="138.91" y2="160.57" gradientTransform="translate(138.27 -43.93) rotate(40.32)" xlink:href="#GradientFill_1"/><linearGradient id="GradientFill_1-5" x1="102.13" y1="150.1" x2="159.7" y2="116.86" xlink:href="#GradientFill_1"/></defs><title>Fichier 7</title><g id="Calque_2" data-name="Calque 2"><g id="Layer_1" data-name="Layer 1"><path class="cls-1" d="M129,0C57.89,0,0,58,0,129S57.89,258,129,258s129-58,129-129S199.94,0,129,0Z"/><path class="cls-2" d="M129,2.74c69.48,0,126.22,56.73,126.22,126.21S198.43,255.24,129,255.24,2.74,198.5,2.74,129,59.4,2.74,129,2.74Z"/><path class="cls-3" d="M129,19.58A109.41,109.41,0,1,1,19.51,129C19.51,68.69,68.69,19.58,129,19.58Z"/><path class="cls-4" d="M129,21.24A107.91,107.91,0,0,1,236.66,129c0,59.4-48.38,107.79-107.71,107.79S21.24,188.35,21.24,129A107.91,107.91,0,0,1,129,21.24Z"/><path class="cls-5" d="M89,183.67l1.3.72,1.29.72,1.23.65,1.22.72,1.23.65,1.29.57,1.23.65,1.22.58,1.22.57,1.23.51,1.22.5,1.15.51,1.23.5,1.22.43,1.23.51,1.15.36,1.22.43,1.23.36,1.15.36,1.22.29,1.15.36,1.23.28,1.15.22,1.22.22,1.16.21,1.22.22,1.15.14,1.15.15,1.23.14,1.15.07,1.15.07h3.75l1.22-.07,1.3-.07,1.22-.07,1.3-.15,1.22-.14,1.3-.22,1.22-.21,1.3-.22,1.22-.29,1.3-.28,1.29-.29,1.3-.36,1.22-.36,1.3-.36,1.29-.43,1.3-.44,1.3-.5,1.29-.5,1.3-.51,1.29-.5,1.3-.58,1.3-.57,1.29-.65,1.3-.65,1.37-.65,1.29-.65,1.3-.72,1.37-.72,1.29-.72,1.37-.79.58-.29.64-.21.58-.22.65-.07.57.07.58.07.58.22.5.22.43.36.43.36.36.43.29.43.29.5.14.51.22.5.14.58.08.5v.58l.07.57-.07.58-.08.58-.07.64-.21.58-.15.58-.29.57-.28.51-.29.57-.43.51-.44.43-.5.5-.5.36-.58.36-1.51.87-1.51.86-1.52.79-1.51.72-1.44.79-1.44.65-1.51.72-1.44.65-1.37.65-1.44.57-1.44.58-1.37.5-1.36.58-1.44.43-1.37.51-1.37.43-1.37.43-1.37.36-1.36.36-1.3.29-1.37.29-1.37.28-1.29.22-1.37.22-1.3.21-1.36.15-1.3.14-1.3.07-1.36.07-1.3.08h-2.66l-1.23-.08-1.29-.07-1.23-.07-1.22-.07-1.23-.15-1.29-.21-1.23-.15-1.29-.21-1.23-.22-1.29-.29-1.23-.28-1.29-.29-1.3-.36-1.22-.36-1.3-.36-1.29-.43-1.3-.44-1.3-.43-1.29-.5-1.3-.51-1.37-.5-1.29-.58-1.37-.57-1.37-.58-1.29-.65L94.25,200l-1.37-.72-1.44-.65-1.37-.72-1.37-.79-1.44-.72-1.44-.87-.57-.36-.58-.36-.43-.5-.5-.43-.36-.51-.36-.57-.29-.51-.22-.57-.21-.58-.15-.58-.07-.64-.07-.58-.07-.58v-.57l.07-.58.07-.5.14-.58.15-.5.21-.51.29-.5.29-.43.36-.43.36-.36.5-.36.51-.22.5-.22L86,183l.58-.07.57.07.65.22.58.21.57.29ZM78.48,102.1l-.43-.29-.43-.29-.51-.29-.43-.29-.43-.28-.43-.29-.44-.29L75,99.72l-.43-.29-.43-.36-.36-.29-.07.29v.29l-.08.29v.57l-.07.29v.29l-.14,1.73-.07,1.8v1.87l.07,1.94.07,2,.22,2,.21,2.16.29,2.16.36,2.23.36,2.3.5,2.31.51,2.3.65,2.3.64,2.38.8,2.38.79,2.37.93,2.31.94,2.37,1.08,2.31,1.15,2.3,1.15,2.3,1.3,2.24,1.37,2.16,1.44,2.16,1.58,2.08,1.59,2,1.72,2,1.8,1.87L96.7,163l1.94,1.73,2.09,1.65,8.06,5.83-8.42-2-1.3-.36-1.29-.43-1.23-.36-1.22-.44-1.23-.5L93,167.69l-1.15-.58-1.15-.5L89.57,166l-1.08-.57-1.08-.65-1-.65-1-.65-.93-.72-1-.65-.94-.79-.86-.72-.87-.79-.86-.79-.86-.87-.8-.79-.79-.86-.72-.87-.79-.93-.65-.94-.72-.93-.65-.94L73.3,151l-.65-1L72,149l-.58-1-.28-.58-.36-.57-.29-.65-.29-.58-.29-.57-.29-.65-.28-.58-.29-.57-.29-.65-.22-.65-.28-.57-.22-.65-.29-.65-.21-.65-.22-.65-.29-.57-.21-.65-.22-.72-.22-.65-.21-.65-.15-.64-.21-.65-.22-.72-.14-.65-.22-.65-.14-.72-.22-.65-.14-.72-.15-.64-.14-.72-.14-.65-.15-.72-.36-1.8-.29-1.8-.28-1.8-.29-1.73-.22-1.8-.21-1.8-.15-1.8-.14-1.8-.07-1.73-.08-1.8L62,107.78v-1.72l.07-1.73.08-1.66.07-1.73.14-1.65.15-1.59.21-1.65.22-1.59L63.14,93l.29-1.51.36-1.51.36-1.44.36-1.44.43-1.37.51-1.37L66,83l.51-1.23L67,80.57l.58-1.15.65-1.08,2-3.1,1.44,2.81.29.57.36.58.29.58.29.57.36.58.28.5.36.51.36.57.29.43.36.51.36.5.29.51.36.43.36.43.36.43.36.43.36.44.36.43.36.36.36.36.36.43.36.36.36.36.43.29.36.36.36.29.36.36.43.28.36.29.36.29.36.22,1.44.93,1.37.72,1.37.58,1.37.5,1.29.36,1.3.15,1.3.14h1.29l1.23-.14,1.29-.22L97.06,94l1.22-.43,1.15-.5,1.23-.58,1.15-.65,1.15-.72,1.08-.79,1.15-.94,1.08-.86,1-1,1.08-1.08.94-1,1-1.15.94-1.15L112.1,82l.87-1.23.86-1.22.79-1.22.72-1.23.72-1.22.65-1.15.65-1.23.14-.29.15-.36.21-.43.29-.57.29-.58.29-.72.36-.72.72-1.51.5-1,.43-.86.44-.94.43-.94.43-1,.43-.94.51-.94.43-1,.43-.94.43-.94.43-.86,1.08-2.3.44-.94.28-.65.29-.57.29-.51.36-.93.14-.15.08-.14L129,49l1.3,2.74.07.14.07.29.15.29.21.36.22.43.21.5.29.58.29.65.29.72.36.72.36.79.72,1.58.43.87.43.86.43.94.44.93.79,1.8.43.94.43.86.43.94.44.86.43.87.36.79.43.79.36.79.29.72.36.65.29.58.28.57.65,1.23.65,1.15.72,1.22.72,1.23.79,1.22.79,1.22.87,1.23.93,1.15.94,1.15.94,1.15,1,1,1,1.08,1.08,1,1.08.86,1.08.94,1.15.79,1.16.72,1.15.65,1.15.58,1.22.5,1.23.43,1.22.29,1.23.22,1.29.14h1.23l1.29-.14,1.3-.15,1.37-.36,1.29-.5,1.37-.58,1.44-.72,1.37-.93.36-.22.43-.29.36-.29.36-.28.43-.36.36-.29.36-.36.36-.29.36-.36.36-.36.43-.43.36-.36.36-.36.36-.43.36-.44.36-.43.29-.43.36-.43.36-.43.36-.51.36-.5.29-.43.36-.51.36-.57.29-.51.36-.5.29-.58.36-.57.28-.58.29-.58.36-.57,1.37-2.81,2,3.1.64,1.08.65,1.15.58,1.22L192,83l.51,1.29.43,1.37.43,1.37.43,1.44.36,1.44.29,1.51.29,1.51.29,1.51.21,1.59.22,1.65.14,1.59.15,1.65.07,1.73.07,1.66v5.18l-.07,1.8-.15,1.73-.07,1.8-.21,1.8-.15,1.8-.21,1.8-.29,1.73-.29,1.8-.29,1.8-.36,1.8-.14.72-.15.65-.14.72-.22.64-.14.72-.14.65-.22.72-.14.65-.22.65-.14.72-.22.65-.22.64-.21.65-.22.65-.21.72-.22.65-.22.57-.21.65-.29.65-.22.65-.21.65-.29.57-.29.65-.21.65-.29.57-.29.58L188,145l-.29.57-.36.58-.28.65-.29.57-.36.58-.58,1-.57,1-.65,1-.65.94-.65.94-.72.93-.72.94-.72.93-.79.87-.79.86-.79.79-.8.87-.86.79-.86.79-.94.72-.94.79-.93.65-.94.72-1,.65-1.08.65-1,.65-1.08.57-1.08.58-1.16.5-1.15.58-1.15.43-1.22.5-1.23.44-1.29.36-1.3.43-1.3.36-8.35,2,8.07-5.83,2.08-1.65,2-1.73,1.87-1.8,1.8-1.87,1.73-2,1.58-2,1.51-2.08,1.44-2.16,1.37-2.16,1.3-2.24,1.22-2.3,1.15-2.3,1-2.31,1-2.37.86-2.31.87-2.37.72-2.38.72-2.38.57-2.3.58-2.3L183,121l.43-2.3.36-2.23.29-2.16.22-2.16.14-2,.15-2v-3.81l-.08-1.8-.07-1.73-.07-.29v-.57l-.07-.29v-.29l-.07-.29v-.29l-.44.29-.43.36-.36.29-.43.36-.43.29-.43.29-.51.28-.43.29-.43.29-.43.29-.51.29-.72.43-.72.36-.79.36-.72.36-.72.29-.72.28-.79.29-.72.29-.72.22-.72.21-.72.15-.72.21-.72.07-.72.15-.72.07-.72.14H167l-.72.08h-2.09l-.72-.08-.72-.07-.65-.07-.72-.14-.65-.08-.72-.14-.64-.14-.72-.22-.65-.22-.65-.21-.65-.22-.79-.29-.79-.28-.79-.36-.8-.36-.79-.44-.79-.36-.72-.5-.79-.43-.79-.51-.72-.5-.8-.5-.72-.51-.72-.57-.79-.58-.72-.58-.72-.64-.72-.58-.65-.65-.72-.65-.64-.64-.72-.65-.65-.72-.65-.65-.58-.72-.64-.72-.58-.72-.65-.72-.5-.72-.58-.72-.57-.72-.51-.79-.5-.72-.29-.51-.36-.5-.29-.5-.29-.51-.28-.5-.29-.51-.29-.5-.29-.5-.29-.51-.28-.5-.29-.51-.29-.57-.22-.51-.28-.5-.22-.5-.29-.58-.07-.07-.07-.22-.15-.21L129.6,77l-.14-.36-.22-.43-.14-.36-.15-.29-.14.29-.36.79-.22.36-.14.29-.07.21-.15.22v.07l-.29.58-.28.5-.22.5-.29.51-.29.57-.21.51-.29.5-.29.51-.29.5-.28.5-.29.51-.29.5-.29.51-.36.5-.29.5-.28.51-.51.72-.57.79-.51.72-.57.72-.58.72-.58.72-.57.72-.65.72-.65.72-.65.65-.64.72-.65.65-.65.64-.72.65-.72.65-.72.58-.72.64-.72.58-.72.58-.72.57-.79.51-.72.5-.79.5-.72.51-.8.43-.79.5-.79.36-.72.44-.79.36-.79.36-.8.28-.79.29-.65.22-.64.21-.72.22-.65.22-.65.14-.72.14-.65.08-.72.14-.72.07-.65.07-.72.08H91.66l-.72-.08h-.72l-.72-.14-.72-.07-.72-.15-.72-.07-.72-.21-.72-.15-.72-.21-.8-.22-.72-.29-.72-.29-.72-.28-.72-.29-.79-.36-.72-.36-.72-.36-.79-.43ZM129,153.36h-.65l-.64.07-.65.07-.65.15-.65.14-.65.15-.57.21-.58.22-.57.29-.58.28-.5.29-.58.36-.5.36-.44.36-.5.43-.43.44-.43.43-.44.5-.36.43-.36.58-.36.5-.28.51-.29.57-.29.58-.22.58-.21.64-.15.58-.14.65-.14.65-.08.64-.07.65V167l.07.65.08.64.14.65.14.65.15.58.21.64.22.58.29.58.29.5.28.58.36.5.36.5.36.51.44.5.43.43.43.44.5.36.44.43.5.36.58.29.5.36.58.28.57.22.58.29.57.14.65.22.65.14.65.07.57.15h.72l.65.07.65-.07h.65l.65-.15.64-.07.65-.14.58-.22.57-.14.65-.29.58-.22.5-.28.58-.36.5-.29.51-.36.5-.43.5-.36.44-.44.43-.43.36-.5.43-.51.36-.5.29-.5.36-.58.29-.5.21-.58.29-.58.14-.64.22-.58.14-.65.08-.65.14-.64V165l-.14-.64-.08-.65-.14-.65-.22-.58-.14-.64-.29-.58-.21-.58-.29-.57-.36-.51-.29-.5-.36-.58-.43-.43-.36-.5-.43-.43-.44-.44-.5-.43-.5-.36-.51-.36-.5-.36-.58-.29-.5-.28-.58-.29-.57-.22-.65-.21-.58-.15-.65-.14-.64-.15-.65-.07-.65-.07ZM100.58,131.9v-4.46l.08-1,.14.07.22.22.28.14.22.22.22.14.28.15.22.14.43.22.36.21.43.22.44.22.36.21.43.15.36.14.43.14.36.15.43.14.43.07.36.08.44.14.36.07h.43l.36.07h.43l.36.08h.79l.36-.08h.79l.36-.07.44-.07.36-.07.36-.07.36-.08.36-.14.36-.07.36-.15.36-.14.43-.14.43-.22.43-.14.43-.22.44-.22.43-.28.43-.22.43-.29.36-.29.43-.28.44-.29.36-.29.43-.29.36-.36.43-.29.36-.36.36-.36L122,124l.36-.36.36-.36.36-.36.36-.43.36-.36.36-.36.29-.43.36-.36.29-.43.28-.43.29-.36.29-.44.29-.43.29-.43.14-.29.22-.29.14-.21.14-.29.22-.29.14-.29.15-.28.14-.29.15-.29.14-.29.14-.29.15-.28.14-.29.15-.29.14-.29L129,114l.07.21.15.29.14.29.15.29.14.28.14.29.15.29.14.29.15.29.14.28.14.29.15.29.21.29.15.21.14.29.22.29.21.43.29.43.29.44.29.36.36.43.29.43.28.36.36.43.36.36.29.43.36.36.36.36.36.36.36.36.36.36.43.36.36.36.36.29.44.36.36.29.43.29.43.29.36.28.43.29.43.29.44.22.36.28.43.22.43.22.43.14.43.22.44.14.36.14.36.15.36.07.36.14.43.08.36.07.36.07.36.07.43.07h.72l.43.08h.79l.36-.08h.36l.44-.07H150l.43-.07.36-.14.43-.08.43-.07.36-.14.43-.15.36-.14.44-.14.36-.15.43-.21.43-.22.36-.22.43-.21.36-.22.29-.14.22-.15.28-.14.22-.22.22-.14.28-.22.08-.07.07,1,.07,1.08v1.08l-.07,1.15-.07,1.23-.08,1.15-.14,1.22-.14,1.23-.15,1.22-.21,1.22-.22,1.23-.22,1.22-.28,1.3-.29,1.22-.29,1.15-.29,1.23-.36,1.22-.29,1.15-.36,1.16L153.5,150l-.36,1.08-.43,1.08-.36,1-.43,1-.36.94-.36.86-.43.79-.36.8-.43.72-.36.72-.36.57-4.32,6.27,6.19-4,.36-.22.36-.22.29-.28.36-.22.36-.29.28-.21.36-.29.29-.29.29-.22.29-.28.29-.29.28-.29.29-.29.29-.36.29-.29.29-.28.28-.29.22-.36.29-.29.21-.36.29-.29.22-.36.21-.29.22-.36.29-.36.21-.36.22-.36.22-.36.14-.36.22-.36.21-.36.15-.28.21-.36.15-.29.14-.36.14-.36.15-.29.21-.36.15-.36.14-.29.15-.36.07-.36.14-.36.15-.36.14-.36.14-.36.08-.36.14-.36.14-.36.08-.36.14-.36.07-.36.15-.36.07-.36.07-.43.14-.36.08-.36.07-.36.07-.43.07-.36.15-.36.07-.43.07-.36.14-1,.22-.94.14-1,.15-1,.07-1,.14-1,.08-.94.07-1v-1l.07-.94v-3.89l-.07-.86-.07-.94-.08-.93-.14-.87-.07-.93-.15-.87-.14-.79-.22-.86-.14-.79-.22-.8-.21-.79-.29-.72-.29-.79-.29-.65-.28-.72-.36-.65-.29-.64-1.73-2.74-1.44,3-.36.65-.29.58-.36.57-.29.51-.36.57-.36.43-.36.51-.36.43-.36.43-.36.43-.36.36-.43.36-.36.29-.36.36-.36.22-.72.5-.65.36-.64.29-.65.29-.65.14-.65.07-.57.08h-.58l-.65-.08-.57-.07-.58-.14-.58-.22-.57-.29-.58-.28-.57-.36-.58-.36-.58-.44-.57-.43-.51-.5-.5-.51-.58-.57-.5-.58-.5-.57-.44-.65-.43-.65-.5-.58-.36-.72-.43-.64-.36-.65-.36-.65-.36-.65-.36-.65-.08-.28-.21-.36-.15-.36-.21-.36-.15-.44-.21-.43-.22-.43-.21-.5-.44-.94-.43-1-.21-.5-.22-.51-.22-.5-.21-.5-.22-.51L132,103l-.22-.5-.22-.44-.14-.43-.22-.36-.14-.36-.14-.36-.15-.36-.14-.21-.15-.29-.07-.22-.07-.14-.07-.15v-.07l-1.37-2.88-1.22,2.88-.08.07-.07.15-.07.21-.14.22-.08.29-.14.36-.22.36-.14.43-.22.43-.21.43-.15.44-.28.5-.44,1.08-.28.58-.44,1-.21.51-.22.5-.29.51-.21.5-.22.5-.36.87-.21.43-.15.36-.14.36-.15.29-.14.21-.07.22-.07.14-.29.65-.36.65-.36.65-.36.65-.43.64L120,115l-.43.58-.43.65-.5.65-.51.57-.5.58-.51.57-.5.51-.58.5-.5.43-.58.44-.57.36-.58.36-.57.28-.58.29-.58.22-.57.14-.65.07-.58.08h-.57l-.65-.08-.58-.07-.64-.14-.65-.29-.65-.29-.72-.36-.65-.5-.36-.22-.43-.36-.36-.29-.36-.36-.36-.36-.36-.43-.36-.43-.36-.43-.36-.51-.36-.43-.36-.57-.36-.51-.29-.57-.36-.58-.29-.65-1.44-3-1.72,2.74-.36.64-.29.65-.36.72-.29.65-.22.79-.28.72-.22.79-.22.8-.21.79-.15.86-.14.79-.14.87-.15.93-.07.87-.07.93-.07.94-.08.86v1l-.07.94v.93l.07,1v.94l.08,1,.07,1,.07.94.07,1,.15,1,.14,1,.14.94.15,1,.21,1,.08.36.07.43.07.36.07.36.15.43.07.36.07.36.07.36.15.43.07.36.14.36.07.36.15.36.07.36.14.36L96,147l.14.36.14.36.15.36.07.36.14.36.15.36.14.36.15.29.14.36.14.36.15.29.14.36.22.36.14.29.15.36.21.28.15.36.21.36.22.36.21.36.22.36.22.36.21.36.22.36.29.29.21.36.22.29.29.36.21.29.29.36.29.29.21.28.29.36.29.29.29.29.29.29.28.29.36.21.29.29.29.29.36.29.29.21.36.29.29.22.36.28.36.22.36.22,6.12,3.67-4.4-6.12-.43-.65-.43-.72-.43-.72-.43-.86-.44-.87-.43-.86-.43-.94-.43-1-.36-1-.36-1-.36-1.08-.36-1.15-.36-1.08L103,146.3l-.36-1.22-.29-1.15-.21-1.23-.29-1.15-.22-1.22-.21-1.23-.15-1.22-.21-1.22-.15-1.16-.07-1.22-.14-1.15Z"/><path class="cls-6" d="M88.34,184.9c13.54,7.84,26.36,12.6,39.24,12.88,13.76.22,27.58-4.53,42-12.88,5.26-3,7.06,6.48,1.8,9.43-16.2,9.14-29.88,13.53-43.7,13.25-13-.29-25.92-4.68-41.12-13.25C81.22,191.38,83.09,181.87,88.34,184.9Z"/><path class="cls-7" d="M129,72.22c-.21.5-2.23,4.6-2.37,5a77.72,77.72,0,0,1-4.47,8c-5.11,7.77-13.39,15.12-21.38,18-6.63,2.37-13.9,2-21.53-2.31a33,33,0,0,1-6.55-5c-.22,1.59-.43,3.17-.58,4.83-1.51,18.07,5.91,52,30,68.4C88,165.89,78.7,158,72.65,147.24a71.24,71.24,0,0,1-7.13-20.16c-3.82-18.72-2.45-38.66,4.61-49,3.31,6.62,7.34,11.38,11.66,14.4,16,10.87,30.24-5.33,36.79-18.36C119.88,71.64,129,52.27,129,52.27s7.49,16.27,10.3,21.89c6.55,13,20.88,29.23,36.79,18.36,4.39-3,8.42-7.78,11.66-14.4,7.13,10.3,8.5,30.24,4.68,49a69,69,0,0,1-7.2,20.16c-6,10.73-15.33,18.65-29.37,21.89,24.12-16.42,31.53-50.33,29.95-68.4-.14-1.66-.29-3.24-.5-4.83a35.54,35.54,0,0,1-6.56,5c-7.7,4.32-14.9,4.68-21.6,2.31-7.92-2.88-16.2-10.23-21.38-18a64.6,64.6,0,0,1-4.39-8C131.11,76.82,129.17,72.72,129,72.22Z"/><circle class="cls-8" cx="128.95" cy="166.32" r="11.52" transform="translate(-76.99 122.96) rotate(-40.32)"/><path class="cls-9" d="M129,110.59c-.14.29-1.15,2.52-1.22,2.74a36.7,36.7,0,0,1-2.38,4.39c-2.66,4.25-7,8.28-11.09,9.86a12.4,12.4,0,0,1-11.3-1.29,19.73,19.73,0,0,1-3.38-2.67,26.15,26.15,0,0,0-.29,2.6c-.94,11.66,3.31,28.08,8.57,34.7a23.54,23.54,0,0,1-8.28-9.14,41.05,41.05,0,0,1-3.75-11.09c-1.94-10.3-1.29-21.24,2.45-26.86a21.06,21.06,0,0,0,6,7.92c8.35,6,15.77-3,19.22-10.15.65-1.37,5.4-11.95,5.4-11.95s3.89,8.93,5.4,11.95c3.39,7.2,10.87,16.13,19.15,10.15a20.28,20.28,0,0,0,6.12-7.92c3.68,5.62,4.4,16.56,2.38,26.86a38.69,38.69,0,0,1-3.67,11.09,23.62,23.62,0,0,1-8.28,9.14c4.17-5.83,9.5-23,8.57-34.7-.08-.87-.22-1.8-.29-2.6a19.88,19.88,0,0,1-3.46,2.67,12.24,12.24,0,0,1-11.23,1.29c-4.18-1.58-8.5-5.61-11.16-9.86-.86-1.44-1.58-2.88-2.3-4.39C130.1,113.11,129,110.88,129,110.59Z"/></g></g></svg>