<svg xmlns="http://www.w3.org/2000/svg" xmlns:xlink="http://www.w3.org/1999/xlink" viewBox="0 0 257.98 257.9"><defs><style>.cls-1{fill:#864634;}.cls-1,.cls-2,.cls-3,.cls-4,.cls-5,.cls-6,.cls-7,.cls-8,.cls-9{fill-rule:evenodd;}.cls-2{fill:url(#GradientFill_1);}.cls-3{fill:#518342;}.cls-4{fill:#85b642;}.cls-5{fill:url(#GradientFill_1-2);}.cls-6{fill:url(#GradientFill_1-3);}.cls-7{fill:url(#GradientFill_1-4);}.cls-8{fill:url(#GradientFill_1-5);}.cls-9{fill:url(#GradientFill_1-6);}.cls-10{fill:url(#GradientFill_1-7);}</style><linearGradient id="GradientFill_1" x1="24.5" y1="189.24" x2="233.54" y2="68.55" gradientUnits="userSpaceOnUse"><stop offset="0" stop-color="#ca6c38"/><stop offset="0.17" stop-color="#ffcb05"/><stop offset="0.4" stop-color="#fffcd5"/><stop offset="0.62" stop-color="#fff9ae"/><stop offset="0.83" stop-color="#ffcb05"/><stop offset="1" stop-color="#ca6c38"/></linearGradient><linearGradient id="GradientFill_1-2" x1="87.67" y1="125.8" x2="166.54" y2="80.27" xlink:href="#GradientFill_1"/><linearGradient id="GradientFill_1-3" x1="132.53" y1="65.03" x2="142.89" y2="59.05" xlink:href="#GradientFill_1"/><linearGradient id="GradientFill_1-4" x1="118.13" y1="76.6" x2="149.3" y2="58.61" xlink:href="#GradientFill_1"/><linearGradient id="GradientFill_1-5" x1="133.06" y1="59.22" x2="153.66" y2="47.33" xlink:href="#GradientFill_1"/><linearGradient id="GradientFill_1-6" x1="99.33" y1="209.48" x2="154.65" y2="177.55" xlink:href="#GradientFill_1"/><linearGradient id="GradientFill_1-7" x1="120.13" y1="184.34" x2="139.2" y2="173.32" gradientTransform="translate(285.34 21.98) rotate(80.75)" xlink:href="#GradientFill_1"/></defs><title>Fichier 5</title><g id="Calque_2" data-name="Calque 2"><g id="Layer_1" data-name="Layer 1"><path class="cls-1" d="M129,0C58,0,0,58,0,128.88s58,129,129,129,129-58,129-129S200,0,129,0Z"/><path class="cls-2" d="M129,2.74c69.55,0,126.22,56.73,126.22,126.14S198.5,255.1,129,255.1,2.74,198.43,2.74,128.88,59.47,2.74,129,2.74Z"/><path class="cls-3" d="M129,19.58c60.27,0,109.44,49.11,109.44,109.3S189.22,238.32,129,238.32,19.58,189.14,19.58,128.88,68.69,19.58,129,19.58Z"/><path class="cls-4" d="M129,21.24c59.4,0,107.79,48.38,107.79,107.64A108,108,0,0,1,129,236.66c-59.33,0-107.71-48.45-107.71-107.78S69.62,21.24,129,21.24Z"/><path class="cls-3" d="M96.41,58l.5-.5.43-.44.51-.5.57-.43.51-.43.5-.44.58-.43.5-.43.58-.36.57-.43.58-.36.58-.36.64-.36.58-.36.65-.29.57-.29.65-.29.65-.28.72-.29.65-.22.65-.21.72-.22.72-.22.72-.14.72-.14.72-.15.72-.07.72-.07.79-.07.79-.08,1.22.08,1.08.14.94.36.79.5.65.65.5.79.22.8.07.79-.07.79-.22.72-.28.65-.36.65-.51.5-.5.5-.65.36-.65.22-1,.14-.79.15-.79.14-.79.07-.72.15-.65.21-.65.15-.65.14-.64.22-.58.14-.58.22-.5.21-.5.22-.51.22-.43.21-.5.22-.44.21-.36.29-.43.22-.36.29-.36.21-.36.29-.36.29-.36.29-.29.28-.28.29-.36.29-.29.29-.29.36-.29.29-.29.36-.28.36-.51.57-.43.65-.36.5-.29.58-.21.43-.22.51-.07.36-.07.36-.08.36V70l.08.22.07.29.14.29.15.28.14.22.22.29.28.29.29.28.36.29.36.29L102,73l.43.29.44.28.5.29.5.29.51.36.5.29.58.29.5.36.58.28.57.29,1.44.79,1.52.8,1.44.64,1.51.65,1.58.51,1.51.57,1.59.43,1.58.36,1.59.36,1.58.29,1.66.22,1.58.14,1.66.15L129,82h1.59l1.65-.07,1.66-.15,1.58-.14,1.66-.22,1.58-.29,1.59-.36,1.58-.36,1.58-.43,1.59-.5,1.51-.58,1.51-.65,1.51-.64L151,76.9l1.44-.8,1.37-.86,1.44-.86,1.3-.94.29-.29.28-.21.29-.29.36-.36L158,72l.29-.43.29-.36.36-.43.28-.44.36-.43.29-.5.36-.43.36-.51.29-.5.36-.51.36-.5.36-.43.36-.51.36-.5.36-.5.36-.44.36-.5.43-.43.43-.43.44-.44.43-.36L166,62l.43-.29.51-.36.5-.28.58-.22,3.38-1.3-1.22,3.32-.15.36-.14.36-.15.36-.14.43-.14.36-.08.43-.14.43-.14.43-.15.44-.07.43-.14.43-.15.43-.07.43-.14.51-.08.43-.07.5-.07.51-.07.5-.07.51-.08.5-.07.5v.51l-.07.5v2.23l.07.51v.57l.07.58.08.65.14,1.37.22,1.44.14,1.44.14,1.58.22,1.51.14,1.59.15,1.65.14,1.59.15,1.65.21,1.73.15,1.66.14,1.65.14,1.73.08,1.66.14,1.65.14,1.73.15,1.66.07,1.58.14,1.66.08,1.58.14,1.58.07,1.52.07,1.51.08,1.44.07,1.37.07,1.36.07,1.3v1.3l.07,1.15v4.1l-.07,1-.14,1-.22,1.08-.21,1-.29,1.08-.36,1-.36,1.08-.43,1-.51,1.08-.5,1-.58,1.08-.57,1-.65,1.08-.65,1-.72,1-.72,1-.79,1-.79.94-.87,1-.86.94-.87.94-.93.86-1,.86-.94.87-1,.86-1,.79-1.08.8-1.08.72-1.08.72-1.08.72-1.15.64-1,.51-1,.43-1.08.43-1.15.43-1.15.36-1.23.36-1.29.29-1.23.22-1.37.29-1.29.21-1.37.15-1.37.14-1.44.07-1.37.15h-5.68l-1.37-.15-1.44-.07-1.37-.14-1.37-.15L120.1,159l-1.37-.29-1.23-.22-1.29-.29-1.23-.36-1.15-.36-1.15-.43-1.08-.43-1-.43-1-.51-1.15-.64-1.08-.72-1.08-.72-1.08-.72-1.08-.8-1-.79-1-.86-1-.87-.94-.86-.93-.86-.87-.94-.86-.94-.87-1-.79-.94L95,143l-.72-1-.72-1L93,140l-.65-1.08-.57-1-.58-1.08-.5-1-.51-1.08-.43-1-.36-1.08-.36-1-.29-1.08-.21-1-.22-1.08-.14-1-.07-1v-4.32l.07-1v-.93l.07-1.08V118l.07-1.08.07-1.15.08-1.16.07-1.22v-1.22l.14-1.23.07-1.22.08-1.3.07-1.29.07-1.37.14-1.3.08-1.29.07-1.37.14-1.37.07-1.37.15-1.37.07-1.29L89.78,95l.15-1.37L90,92.3,90.14,91l.15-1.37.14-1.3.15-1.29.07-.87.07-.79v-.86l.07-.79v-4l-.07-.8-.07-.72-.07-.79-.08-.72L90.36,76l-.07-.79-.15-.72L90,73.8l-.14-.72-.22-.79-.22-.72-.21-.72L89,70.13l-.21-.72-.29-.72L88.2,68l-.29-.79-.36-.72-.29-.72L86.9,65l-.36-.8-.43-.72L84.6,60.7l2.66-.08h3.53l.29-.07h.58l.28-.07h.22l.29-.07.29-.07H93l.22-.08.29-.07.21-.07.22-.14.21-.08.22-.14.22-.07.14-.15.22-.14.21-.14.15-.15.21-.21.43-.51.51-.43Zm36.86,44.71.72-1,.79-.93.72-1,.8-.94.79-.93.79-1,.79-.94.87-.93.79-.94.79-.93.86-.87.8-.93.79-.87.86-.86.79-.79.65-.72-.29.07-.5.21-.58.15-.5.14-.58.15-.43.07-.5.14-.51.07-.43.15-.5.07-.51.14-.43.08-.5.07-.51.07-.43.14-.5.08-.51.07-.5.07h-.5l-.44.07-.5.07-.5.08h-.51l-.5.07h-.51l-.5.07h-.43l-.51.07h-4.6l-.65-.07h-.65l-.58-.07h-.64l-.65-.07-.58-.08-.65-.07-.64-.07-.65-.07-.58-.15-.65-.07-.64-.07-.58-.14-.65-.15-.57-.07-.65-.14L117,89l-.58-.14-.64-.22-.58-.14-.65-.15-.57-.21-.65-.15-.58-.21-.65-.22-.57-.21-.65-.22-.58-.22-.64-.21-.58-.29-.58-.22-.64-.28-.51-.22-.5-.22-.51-.21-.5-.22-.5-.29-.51-.21-.5-.29-.51-.22-.5-.28-.5-.22-.44-.29-.5-.29-.5-.28-.51-.29-.43-.22-.5-.29-.36-.28-.29-.15v2.23l-.07.36v1.23l-.08.72-.07.72v.72l-.07.72-.07.72v.72l-.07.72-.08.72-.07.72v.72l-.07.72-.07.72-.07.65-.08.72V96l-.07.72-.07.72-.07.72-.07.72-.08.72-.07.72-.07.72v.72l-.07.64-.07.72-.08.72-.14,1.44V106l-.07.72-.07.72-.08.72-.07.72v.72l-.07.36v.44l-.07.72-.07.79v.72L97,113v.36l-.07.72v.79l-.07.72-.07.72v1.15l-.07.36v1.51l-.08.72v1.37l-.07.36v2.59l.07.29v1.08l.08.22v.57l.07.22V127l.07.21v.29l.07.22L97,128v.21l.08.29.07.22.07.28.07.36.15.36.14.44.14.36.08.36.14.36.14.36.22.36.14.43.15.36.21.36.15.36.21.36.22.36.22.36.21.36.22.36.21.29.22.36.22.36.21.36.29.36.22.28.28.36.22.36.29.29.29.36.21.29.29.36.29.29.29.36.28.29.29.36.36.36.29.28.36.36.29.29.36.36.29.29.36.29.28.36.36.29.29.28.36.29.29.29.36.22.29.28.36.29.36.22.29.21.36.29.36.22.28.21.36.22.36.22.36.21.29.22.36.21.36.22.36.14.36.22.36.22.36.14.43.14.36.22.36.14.36.15.44.14.36.15.36.14.43.14.36.08.36.14.43.07.36.15.36.07.43.07.36.14.43.08.36.07.44.07.36.07.43.07.36.08.43.07h.36l.43.07.43.07h.36l.44.07h.43l.07.08-.07-.29-.07-.43-.15-.51-.07-.43-.14-.5-.15-.51-.07-.5-.14-.58-.15-.5-.07-.58-.14-.57-.15-.58-.07-.58-.14-.64-.15-.58-.07-.65-.07-.65-.15-.64-.07-.65-.07-.65-.07-.65-.07-.65-.08-.72-.07-.64-.07-.72V136l-.07-.72v-3.17l.07-.79v-.79l.07-.8.07-.79.08-.79.07-.72.14-.79.07-.79.15-.72.14-.8.15-.72.14-.72.14-.72.15-.72.21-.72.15-.72.21-.72.22-.72.22-.72.21-.64.22-.65.21-.72.22-.65.29-.58.21-.64.29-.58.29-.65.22-.57.5-.94.43-.86.58-1,.5-.94.65-.93.58-.94.64-1,.65-.93.72-1,.72-.94Zm3.24,10.15-.57,1.08-.51,1.08-.29.51-.21.57-.22.51-.21.57-.22.51-.14.57-.22.65-.22.58-.14.57-.22.65-.14.65-.22.58-.14.64-.14.65-.15.65-.14.65-.07.65-.15.72-.07.64-.14.72-.08.65-.07.72-.07.72-.07.65-.07.72v.72l-.08.72v3.46l.08.57v.65l.07.58.07.57v.65l.07.58.07.57.08.58.14.57.07.58.07.58.08.57.14.58.07.5.07.58.15.57.07.51.07.5.15.58.07.5.07.51.14.5.08.5.07.44.07.5.14.43.08.51.07.43v.29h.43l.43-.08h.43l.44-.07.43-.07h.43l.43-.07.36-.07.43-.08.44-.07.43-.07.43-.07.36-.07.43-.08.43-.14.36-.07.44-.15.43-.07.36-.14.43-.15.36-.07.43-.14.36-.15.43-.14.36-.22.36-.14.44-.14.36-.22.36-.14.57-.29.58-.36.57-.29.58-.36.5-.36.58-.36.5-.36.51-.36.57-.43.51-.36.5-.43.51-.44.5-.5.5-.43.51-.51.5-.43.29-.36.29-.29.36-.28.29-.36.28-.29L156,140l.29-.36.29-.29.29-.36.28-.36.22-.29.29-.36.29-.36.21-.36.29-.28.22-.36.28-.36.22-.36.22-.36.21-.36.22-.36.21-.36.22-.36.22-.44.21-.36.15-.36.21-.36.15-.43.21-.36.15-.36.14-.43.14-.36.08-.29.14-.21.07-.29.07-.22.08-.29.07-.21.07-.29.07-.22v-.28l.07-.22.08-.29.07-.29v-.21l.07-.29.07-.22v-.28l.07-.29v-.58l.08-.29v-.57l.07-.29v-4.9l-.07-.5v-1.08l-.08-.5V116.5l-.07-.58v-.5l-.07-.51v-.57l-.07-.51v-.57l-.07-.51v-.57l-.08-.51v-.5l-.07-.58v-.5l-.07-.58V109l-.07-.51-.07-.57v-.51l-.08-.57v-.51l-.07-.5v-.58l-.07-.5v-.36l-.07-.43v-.36l-.07-.43v-.36l-.08-.8v-.43l-.07-.36-.07-.79v-.79l-.07-.43v-.36l-.07-.44v-.36l-.08-.43v-.36l-.07-.43v-.36l-.07-.43v-.36l-.07-.43V94.9l-.07-.44V94.1l-.08-.43v-.36l-.07-.43v-.36l-.07-.43v-.58l-.07-.29v-.57l-.07-.29v-.29l-.08-.29v-.57l-.07-.29v-.29l-.07-.57v-.29l-.07-.29v-.29l-.07-.57v-.29l-.08-.29v-.43l-.72.65-.93.86-.94.94-1,.86-.93.86-.94.94-1,.94-.93.93-.94.94-.93.93-1,.94-.94,1-.86.93-.94,1-.93.94-.87,1-.86,1-.87,1-.86,1-.79,1.08-.79,1-.8,1.08-.79,1-.72,1.08-.65,1.08-.64,1-.65,1.08Z"/><path class="cls-5" d="M96.48,59.9c4.75-5,10.94-9.14,18.72-9.36,6.12-.14,4,5.33,1.87,5.69-9.43,1.15-13.32,4-16.41,7.85-6,7.42-.36,9.72,5.76,13.25,15.62,8.93,36.28,8.06,51-2.81,3.75-2.74,6.77-10.94,11.52-12.53a32.75,32.75,0,0,0-2.37,15.84c1.87,14.55,3.6,37.73,3.6,47.59s-9.15,22.54-20.88,29c-9.44,5.25-29.52,5.25-39,0C98.57,148,89.42,135.14,89.42,125.42c0-7.92,1.16-24.48,2.52-38.23a40.36,40.36,0,0,0-5-25.13c3.38-.07,7,.44,9.5-2.16Zm30.74,92.67a77.32,77.32,0,0,1-3.09-17.28,50.66,50.66,0,0,1,4.46-22.47c4.47-9.36,15.63-21.31,22.83-28.29a48.26,48.26,0,0,1-8.36,2.88A53.85,53.85,0,0,1,127.73,89a51.75,51.75,0,0,1-19.3-4.39,66,66,0,0,1-7.77-4c-.94-.58-2-1.22-2.88-1.87a49,49,0,0,1,0,6.41c-.44,7.63-1.23,15.19-1.88,22.82-.28,4-.57,8-.72,12-.07,3.75-.14,6.41.65,9.36a28.59,28.59,0,0,0,6.91,11.81A33.62,33.62,0,0,0,114,149.76a35.08,35.08,0,0,0,13.24,2.81Zm34.2-69.91c-9.64,8.92-21.74,19.72-27.28,31.75a47.75,47.75,0,0,0-4,21.24c.28,6.62,2.08,12.89,2.44,16.92,4.76-.29,9.36-1,13.68-3.17a34.63,34.63,0,0,0,8.86-6.48,32.93,32.93,0,0,0,8-11.81,25.2,25.2,0,0,0,1.3-9.36c-.07-5.69-.65-11.45-1-17.06-.36-4.25-.65-8.5-1.08-12.75C162.07,88.85,161.78,85.75,161.42,82.66Z"/><path class="cls-3" d="M143.14,56.23l.36.58.28.65.15.57.14.65.07.72-.07.65-.07.65-.14.64-.22.65-.29.58-.36.65-.43.57-.43.58-.51.5-.5.51-.58.43-.64.43-.36.22.79-.36.86-.36.94-.44,1-.5,1-.58,1.08-.64,1.08-.65,1.23-.72,1.29-.87,1.52-.93.79-.29.79-.07.79.07.72.14.79.29.65.43.65.44.58.64.5.72.29.87v1l-.22.93-.43.94-.65.93-.93.8-1.08.86-1.37.86-1.3.8-1.29.72-1.23.64-1.15.65-1.22.58-1.08.5-1.16.51-1.08.43-1.08.36-1.08.36-1,.29-1.08.21-1,.22-1.08.21-1,.08-1,.07-1.08.07h-2.09l-1-.07-1.08-.07L128,76.46l-1.16-.14-1.15-.22L124.56,76l-1.15-.22-1.23-.21-1.29-.29-1.3-.22-1.29-.28-1.44-.29-1.3-.36-1.15-.51-1-.57-.79-.65-.58-.79-.36-.94-.14-.86.14-.94L112,68l.43-.72.65-.65.65-.5.79-.51.94-.29.93-.21h1l1.73.29,1.51.28L122,66l1.3.29,1.22.22,1.22.21,1.08.22,1.08.21,1,.15.94.14.93.07.87.08.79.07h1.58l.8-.07.57-.08-.57-.07-.65-.07-.58-.22-.57-.28-.58-.29-.43-.43-.51-.44-.36-.5-.36-.58-.28-.57-.08-.72.22-.79.36-.58.5-.36.44-.22.43-.14.43-.22.5-.14.44-.14.43-.15.43-.14.5-.22.44-.21.43-.29.43-.36.36-.36.36-.36.36-.43.29-.44.29-.43.36-.43.28-.36.29-.43.43-.36.44-.43.64-.29.8-.07.79.28.57.44.44.57Zm-9.94-.86.79-.07h.79l.65-.08h.65l.65-.07.57-.07.51-.07.57-.07.44-.08.5-.07.43-.07h.36l.43-.07h1.08l.36.07.44.07.36.07.43.08.43.14.43.14.51.22.5.29.58.29.64.28.65.44.72.43.72.5.79.58.87.57,1.08.8.65.28.72.15.72.07.72-.14.64-.15.72-.36.58-.36.58-.57.5-.65.29-.72.14-.87v-.93l-.29-.94-.5-.86-.72-.87-.86-.86-.72-.65-.65-.57-.72-.51-.65-.5-.72-.43-.65-.44-.65-.43-.72-.36-.64-.29-.65-.28-.65-.29-.72-.22-.65-.21-.65-.15-.64-.14-.72-.15-.65-.07-.65-.07L142.2,46l-.65-.07h-2l-.65.07-.72.07h-.65l-.72.07-.72.15-.72.07-.72.07-.72.14-.79.08-1.08.28-1,.36-.86.44-.72.64-.58.72-.29.8-.14.86.07.79.22.79.36.72.43.58.57.58.65.43.79.36.8.21Z"/><path class="cls-6" d="M142,57c1.52,2.24.51,5.62-2.3,7.64s-5.83,1.87-7.34-.36,1.65-1.52,4.46-3.46S140.4,54.86,142,57Z"/><path class="cls-7" d="M117.29,66.53c17.21,3.17,18.79,4.89,33.62-4.83,2.31-1.15,7.92,2.31,1.87,6.2-14.4,9.28-20.59,8.35-35.64,5.18C110.23,71.57,113,66.38,117.29,66.53Z"/><path class="cls-8" d="M133.27,53.93c8.21,0,8.21-3.24,18.58,4.46,1.8,1.23,6.91-1.37,2.23-5.54-7.2-6.41-12.82-6-20.66-4.75C127.73,49,129.82,53.86,133.27,53.93Z"/><path class="cls-3" d="M93,186.34l1.23.79,1.15.72,1.15.65,1.08.64,1.15.72,1.15.58,1.16.65,1.15.57,1.08.58,1.15.58,1.15.5,1.08.5,1.15.51,1.08.43,1.16.43,1.08.43,1.08.44,1.15.36,1.08.36,1.08.28,1.15.36,1.08.29,1.08.22,1.08.29,1.08.14,1.08.22,1.15.14,1.08.14,1.08.15,1.08.07,1.08.07h4.54l1.15-.14,1.15-.07,1.15-.15,1.23-.14,1.15-.22,1.15-.21,1.15-.22,1.16-.29,1.22-.29,1.15-.28,1.15-.36,1.23-.36,1.15-.44,1.22-.43,1.16-.43,1.22-.43,1.15-.51,1.23-.5,1.15-.58,1.22-.57,1.23-.58,1.22-.65,1.15-.64,1.23-.65,1.22-.65,1.22-.72,1.23-.72,1.22-.79,1.3-.79.57-.29.58-.22.58-.21.57-.08.58.08.57.07.58.21.5.29.44.36.36.36.36.43.21.44.29.5.14.5.15.51.14.57.07.51.08.57v.58l-.08.58v.57l-.14.58-.14.57-.15.58-.21.58-.29.57-.29.51-.36.5-.43.5-.43.51-.51.43-.57.36-1.44.86L167,200l-1.37.79-1.37.79-1.37.72-1.36.72-1.37.72-1.3.65-1.37.65-1.29.57-1.3.65-1.29.5-1.3.58-1.3.43-1.29.51-1.23.43-1.29.43-1.23.36-1.29.36-1.23.36-1.29.29-1.23.29-1.22.21-1.22.22-1.23.14-1.29.22-1.23.07-1.22.14-1.23.08H131l-1.22.07h-1.23l-1.15-.07-1.15-.08-1.15-.07-1.16-.14-1.15-.15-1.22-.14-1.15-.22-1.16-.21-1.15-.22-1.15-.29-1.22-.28-1.16-.29-1.15-.36-1.22-.36-1.15-.36-1.23-.43-1.22-.44-1.15-.43-1.23-.5-1.22-.51-1.23-.57-1.22-.58-1.3-.57-1.22-.58-1.22-.65-1.3-.65-1.3-.72L95,201.46l-1.3-.8-1.29-.72-1.37-.79-1.3-.79-.57-.36-.51-.43-.43-.51-.43-.5-.36-.5-.29-.51L86.9,195l-.21-.58-.15-.58-.14-.57-.14-.58-.08-.57v-1.16l.08-.57.07-.51.07-.57.22-.51.14-.5.22-.5.28-.44.36-.43.36-.36.44-.36.5-.29.5-.21.58-.07.65-.08.57.08.58.21.58.22.57.29Zm36.79-20.52h-.64l-.65.07-.65.07-.65.14-.57.15-.65.14-.58.22-.57.21-.58.29-.58.29-.57.29-.51.36-.5.36-.5.36-.44.43-.43.43-.43.43-.43.44-.36.5-.36.5-.36.58-.29.5-.29.58-.29.58-.21.57-.22.58-.21.65-.15.64-.07.58-.07.65-.07.65v1.36l.07.65.07.65.07.65.15.57.21.65.22.58.21.57.29.58.29.58.29.57.36.51.36.5.36.5.43.44.43.5.43.43.44.36.5.36.5.43.51.29.57.36.58.22.58.29.57.21.58.22.65.21.57.15.65.07.65.07.65.07h1.36l.65-.07.65-.07.65-.07.57-.15.65-.21.58-.22.57-.21.58-.29.58-.22.57-.36.51-.36.5-.36.5-.36.44-.36.43-.43.43-.5.43-.44.36-.5.36-.5.36-.51.29-.57.29-.58.29-.58.21-.57.22-.58.14-.65.15-.57.14-.65.07-.65.07-.65v-1.36l-.07-.65-.07-.65-.14-.58-.15-.64-.14-.65-.22-.58-.21-.57-.29-.58-.29-.58-.29-.5-.36-.58-.36-.5-.36-.5-.43-.44-.43-.43-.43-.43-.44-.43-.5-.36-.5-.36-.51-.36-.57-.29-.58-.29-.58-.29-.57-.21-.58-.22-.65-.14-.57-.15-.65-.14-.65-.07-.65-.07Z"/><path class="cls-9" d="M92.23,187.56c12.53,7.92,24.41,12.82,36.29,13,12.74.29,25.49-4.61,38.81-13,4.89-3,6.55,6.55,1.73,9.58-15,9.21-27.65,13.68-40.47,13.39-12-.29-24-4.75-38.09-13.39C85.61,194.11,87.34,184.54,92.23,187.56Z"/><circle class="cls-10" cx="129.74" cy="178.78" r="11.52" transform="translate(-67.56 278.09) rotate(-80.75)"/></g></g></svg>