<svg xmlns="http://www.w3.org/2000/svg" xmlns:xlink="http://www.w3.org/1999/xlink" viewBox="0 0 257.9 257.9"><defs><style>.cls-1{fill:#864634;}.cls-1,.cls-2,.cls-3,.cls-4,.cls-5{fill-rule:evenodd;}.cls-2{fill:url(#GradientFill_1);}.cls-3{fill:#231f20;}.cls-4{fill:url(#GradientFill_1-2);}.cls-5{fill:url(#GradientFill_1-3);}</style><linearGradient id="GradientFill_1" x1="23.97" y1="189.53" x2="233.01" y2="68.84" gradientUnits="userSpaceOnUse"><stop offset="0" stop-color="#ca6c38"/><stop offset="0.17" stop-color="#ffcb05"/><stop offset="0.4" stop-color="#fffcd5"/><stop offset="0.62" stop-color="#fff9ae"/><stop offset="0.83" stop-color="#ffcb05"/><stop offset="1" stop-color="#ca6c38"/></linearGradient><linearGradient id="GradientFill_1-2" x1="89.93" y1="129.06" x2="179.51" y2="77.35" xlink:href="#GradientFill_1"/><linearGradient id="GradientFill_1-3" x1="65.29" y1="187.09" x2="84.36" y2="176.08" xlink:href="#GradientFill_1"/></defs><title>Fichier 2</title><g id="Calque_2" data-name="Calque 2"><g id="Layer_1" data-name="Layer 1"><path class="cls-1" d="M129,0C57.89,0,0,58,0,128.88s57.89,129,129,129,129-58,129-129S199.94,0,129,0Z"/><path class="cls-2" d="M129,2.74c69.48,0,126.22,56.73,126.22,126.14S198.43,255.1,129,255.1,2.74,198.43,2.74,128.88,59.4,2.74,129,2.74Z"/><path class="cls-1" d="M129,19.58c60.27,0,109.37,49.11,109.37,109.3S189.22,238.32,129,238.32,19.51,189.14,19.51,128.88,68.69,19.58,129,19.58Z"/><path class="cls-3" d="M129,21.24c59.33,0,107.71,48.38,107.71,107.64S188.28,236.66,129,236.66,21.24,188.21,21.24,128.88,69.62,21.24,129,21.24Z"/><path class="cls-4" d="M117.86,120.82l20.09-.29L148.1,91l10.59.93-12.1,37.44-23.76-2-13.53,9.5,8.56-16.05Zm-5.32-8.43L84.67,164.74l40.61-28.66,27.5,2.38,16.85-52.13a152,152,0,0,0,20-3.89c6.12-1.51,6.55-11.45.43-9.65-25.49,7.63-42.62,5.69-65.3-7.34-5.4-3.1-7.71,6.62-2.16,9.5a147,147,0,0,0,19,8.35l-9.93,28.8Z"/><path class="cls-5" d="M75,170a11.52,11.52,0,1,1-11.52,11.52A11.56,11.56,0,0,1,75,170Z"/></g></g></svg>