<svg xmlns="http://www.w3.org/2000/svg" xmlns:xlink="http://www.w3.org/1999/xlink" viewBox="0 0 257.9 257.9"><defs><style>.cls-1,.cls-3{fill:#864634;}.cls-2{fill:url(#GradientFill_1);}.cls-3,.cls-5,.cls-6,.cls-7,.cls-8{fill-rule:evenodd;}.cls-4{fill:#fff;}.cls-5{fill:url(#GradientFill_1-2);}.cls-6{fill:url(#GradientFill_1-3);}.cls-7{fill:url(#GradientFill_1-4);}.cls-8{fill:url(#GradientFill_1-5);}.cls-9{fill:url(#GradientFill_1-6);}</style><linearGradient id="GradientFill_1" x1="24.34" y1="189.33" x2="233.39" y2="68.64" gradientTransform="translate(252.98 -4.74) rotate(87.85)" gradientUnits="userSpaceOnUse"><stop offset="0" stop-color="#ca6c38"/><stop offset="0.17" stop-color="#ffcb05"/><stop offset="0.4" stop-color="#fffcd5"/><stop offset="0.62" stop-color="#fff9ae"/><stop offset="0.83" stop-color="#ffcb05"/><stop offset="1" stop-color="#ca6c38"/></linearGradient><linearGradient id="GradientFill_1-2" x1="55.59" y1="138.76" x2="101.26" y2="112.39" gradientTransform="matrix(1, 0, 0, 1, 0, 0)" xlink:href="#GradientFill_1"/><linearGradient id="GradientFill_1-3" x1="104.36" y1="162.17" x2="136.99" y2="143.33" gradientTransform="matrix(1, 0, 0, 1, 0, 0)" xlink:href="#GradientFill_1"/><linearGradient id="GradientFill_1-4" x1="156.87" y1="168.78" x2="176.84" y2="157.25" gradientTransform="matrix(1, 0, 0, 1, 0, 0)" xlink:href="#GradientFill_1"/><linearGradient id="GradientFill_1-5" x1="118.7" y1="124.96" x2="171.29" y2="94.59" gradientTransform="matrix(1, 0, 0, 1, 0, 0)" xlink:href="#GradientFill_1"/><linearGradient id="GradientFill_1-6" x1="151.06" y1="90.85" x2="170.13" y2="79.83" gradientTransform="translate(219.02 -86.94) rotate(80.75)" xlink:href="#GradientFill_1"/></defs><title>Fichier 6</title><g id="Calque_2" data-name="Calque 2"><g id="Layer_1" data-name="Layer 1"><circle class="cls-1" cx="128.95" cy="128.95" r="128.95" transform="translate(-53.41 128.95) rotate(-45)"/><circle class="cls-2" cx="128.95" cy="128.95" r="126.22" transform="translate(-4.74 252.98) rotate(-87.85)"/><path class="cls-3" d="M129,19.51c60.27,0,109.37,49.18,109.37,109.44A109.54,109.54,0,0,1,129,238.32c-60.26,0-109.44-49.1-109.44-109.37S68.69,19.51,129,19.51Z"/><circle class="cls-4" cx="128.95" cy="128.95" r="107.71" transform="translate(-53.41 128.95) rotate(-45)"/><path class="cls-3" d="M40.9,151.92,96.41,99.29l1.08,2.59.29.65.28.72.29.65.29.72.29.64.36.65.29.65.36.65.28.72.36.65.36.64.36.65.36.58.36.65.36.64.36.65.36.65.44.58.36.64.43.58.43.65.36.57.43.65.43.58.44.57.43.58.43.58.43.57.51.58.43.57,1.65,2.09L40.9,151.92Zm61.7,33.55,40.82-40.17-2.73-1L140,144l-.72-.29-.72-.29-.65-.28-.65-.36-.72-.29-.64-.29-.72-.36-.65-.29-.65-.36-.65-.36-.65-.29-.64-.36-.65-.36-.65-.36-.65-.36-.65-.43-.64-.36-.65-.36-.58-.43-.65-.36-.57-.43-.65-.36-.58-.43-.64-.44-.58-.43-.58-.43-.64-.43-.58-.43-.58-.44-2.16-1.72-16.7,53.85Zm64.15-.29L156.1,148.61l2.52.29.36.07.28.07h.36l.36.07h.36l.36.07H161l.36.08h.36l.36.07h.29l.36.07h.72l.36.07h.65l.36.07h.72l.36.08H168l.36.07h1.94l.22-.07h2.3l.29-.08h1.08l.29-.07H175l.29-.07h.79l.29-.07H177l.28-.07h.29l.29-.08h.22l2.59-.28-13.9,36.28ZM120.17,88.85l1.37,2,1.36,1.88,1.37,1.72,1.37,1.73,1.3,1.66,1.36,1.65,1.37,1.52,1.44,1.44,1.37,1.44,1.44,1.29,1.44,1.3,1.44,1.22,1.51,1.15,1.44,1.16,1.59,1,1.51,1,1.65,1,1.59.86,1.65.87,1.73.86,1.73.72,1.8.72,1.87.72,1.87.65,1.95.58,2,.57,2.09.58,2.09.5,2.16.43,2.23.44,2.31.43,2.37.36.65.14.65.15.65.28.5.29.5.36.44.43.28.51.29.5.22.51.14.57.07.51v1.08l-.07.57-.14.51-.22.5-.21.5-.29.51-.29.5-.36.43-.36.44L176,132l-.43.43-.51.29-.5.28-.58.29-.57.15-.65.21-.65.07h-1.3l-.72-.14-2.66-.5-2.52-.58-2.52-.5L160,131.4l-2.3-.58-2.16-.57-2.16-.65-2.09-.65-2-.65-1.95-.72-1.87-.72-1.8-.79-1.8-.86-1.73-.87-1.73-.86-1.65-.94-1.59-1.08-1.65-1L132,119.3l-1.59-1.15-1.51-1.29-1.51-1.3-1.51-1.37-1.52-1.44-1.51-1.58-1.51-1.59-1.51-1.65-1.51-1.8-1.59-1.8-1.51-2-1.58-2.08L112,98.21l-.36-.58-.36-.65-.29-.57-.14-.65-.15-.65-.07-.57-.07-.65.07-.65.07-.58.15-.57.14-.58.22-.57.21-.58.29-.5.29-.51.36-.43.36-.43.36-.43.43-.36.43-.29.51-.29.5-.22.51-.14.57-.07.58-.07.57.07.58.14.58.29.57.29.51.43.43.5.36.51Zm40.46-16.49H160l-.64.07-.65.07-.65.15-.65.14-.57.15-.65.21-.58.22-.57.29-.51.28-.57.29-.51.36-.5.36-.51.36-.5.43-.43.44-.43.43-.36.5-.44.43-.36.51-.28.57-.36.51-.29.57-.22.58-.29.58-.14.57-.22.65-.14.65-.07.57-.15.65v2.67l.15.64.07.65.14.65.22.58.14.57.29.65.22.58.29.5.36.58.28.5.36.5.44.51.36.43.43.5.43.44.5.36.51.43.5.36.51.29.57.36L155,97l.57.22.65.22.58.21.57.22L158,98l.65.07.65.08.64.07h1.3l.65-.07.65-.08.64-.07.65-.14.65-.22.58-.21.57-.22.58-.22.57-.28.51-.36.57-.29.51-.36.43-.43.5-.36.44-.44.43-.5.43-.43L171,93l.36-.5.36-.5.29-.58.29-.5.28-.58.22-.65.22-.57.14-.58.14-.65.15-.65.07-.64.07-.65v-1.3l-.07-.72-.07-.65-.15-.57-.14-.65-.14-.65-.22-.57-.22-.58-.28-.58-.29-.57-.29-.51-.36-.57-.36-.51-.36-.43-.43-.5-.43-.43-.44-.44-.5-.43-.43-.36-.51-.36-.57-.36-.51-.29-.57-.28-.58-.29-.57-.22-.58-.21-.65-.15-.65-.14-.64-.15-.65-.07-.65-.07Z"/><path class="cls-5" d="M47.52,147.6,95.9,101.74A79.06,79.06,0,0,0,108,122.26Z"/><path class="cls-6" d="M105.62,180.58,120,134a79.67,79.67,0,0,0,20.88,11.88Z"/><path class="cls-7" d="M167,180.79,158,150.26a83.64,83.64,0,0,0,11.38.8,75,75,0,0,0,9.07-.51Z"/><path class="cls-8" d="M119,89.71c14.54,21.24,28.87,30.17,54.72,34,6.12.93,2.66,9.72-3.39,8.49-28.73-5.61-39.89-11.81-57.24-34.85C109.44,92.45,115.63,84.67,119,89.71Z"/><circle class="cls-9" cx="160.63" cy="85.32" r="11.52" transform="translate(50.6 230.15) rotate(-80.75)"/></g></g></svg>